<svg xmlns="http://www.w3.org/2000/svg" xmlns:xlink="http://www.w3.org/1999/xlink" width="1017" height="340" viewBox="0 0 1017 340">
  <defs>
    <filter id="pastelería_consciente_para_festejar" x="0" y="269" width="1017" height="71" filterUnits="userSpaceOnUse">
      <feOffset dx="2" dy="4" input="SourceAlpha"/>
      <feGaussianBlur stdDeviation="2.5" result="blur"/>
      <feFlood flood-color="#eb8ba2"/>
      <feComposite operator="in" in2="blur"/>
      <feComposite in="SourceGraphic"/>
    </filter>
    <filter id="Alelis_logo" x="145.172" y="0" width="723.656" height="201.449" filterUnits="userSpaceOnUse">
      <feOffset dx="2" dy="4" input="SourceAlpha"/>
      <feGaussianBlur stdDeviation="2.5" result="blur-2"/>
      <feFlood flood-color="#eb8ba2"/>
      <feComposite operator="in" in2="blur-2"/>
      <feComposite in="SourceGraphic"/>
    </filter>
  </defs>
  <g id="Título_subtítulo" data-name="Título + subtítulo" transform="translate(-228.553 -226.05)">
    <g transform="matrix(1, 0, 0, 1, 228.55, 226.05)" filter="url(#pastelería_consciente_para_festejar)">
      <text id="pastelería_consciente_para_festejar-2" data-name="pastelería consciente para festejar" transform="translate(5.5 314.5)" fill="#fff" font-size="40" font-family="Poppins-Regular, Poppins" letter-spacing="0.222em"><tspan x="0" y="0">pastelería consciente para festejar</tspan></text>
    </g>
    <g transform="matrix(1, 0, 0, 1, 228.55, 226.05)" filter="url(#Alelis_logo)">
      <path id="Alelis_logo-2" data-name="Alelis + logo" d="M-5390.561,116.8c-9.173-1.584-15.079-7.109-16.912-16.326a61.263,61.263,0,0,1-1.244-11.679q-.122-66.255-.053-132.513c0-1.264,0-2.523,0-4.132h11.5v3.9q0,61.786.052,123.573a147.09,147.09,0,0,0,1.136,15.211,18.976,18.976,0,0,0,1.58,5.486c2.179,4.968,6.4,6.826,11.518,7.122a33.6,33.6,0,0,0,14.635-2.554c.976-.388,1.957-.777,3.359-1.34,1.059,2.929,2.082,5.756,3.136,8.671a19.846,19.846,0,0,1-7.583,3.4,53.343,53.343,0,0,1-13.517,1.838A44.332,44.332,0,0,1-5390.561,116.8Zm170.347-.317c-8.559-1.708-13.631-7.069-15.5-15.4a51.2,51.2,0,0,1-1.332-11.021q-.135-67.365-.057-134.731c-.005-.952-.005-1.9-.005-3.186h11.5v3.892q0,61.618.032,123.234c.008,5.613.015,11.259,1.3,16.788.145.622.306,1.237.5,1.846,1.968,6.307,5.751,9.2,12.358,9.539a34.331,34.331,0,0,0,14.637-2.562c.98-.388,1.961-.777,3.337-1.327,1.069,2.892,2.11,5.718,3.235,8.762a27.165,27.165,0,0,1-2.572,1.425,45.817,45.817,0,0,1-17.963,3.694A48.078,48.078,0,0,1-5220.213,116.483Zm95-6.772a62.642,62.642,0,0,1-5.952-3.677c1.9-3.284,3.538-6.124,5.363-9.285,1.3.754,2.46,1.425,3.627,2.092,10.015,5.76,20.7,8.883,32.324,7.651,6.839-.724,13.022-3.16,17.465-8.762,9.116-11.5,5.308-27.227-7.966-33.385-5.531-2.569-11.4-4.024-17.237-5.636a85.3,85.3,0,0,1-16.442-5.964c-9.875-5.055-14.572-13.24-14.875-24.139a32.277,32.277,0,0,1,3.737-16.905,29.174,29.174,0,0,1,18.105-14.18c17.2-4.918,33.007-1.946,47.1,9.252a50.758,50.758,0,0,1,3.941,3.88c-2.5,2.65-4.888,5.181-7.376,7.816-1.751-1.532-3.282-2.977-4.919-4.287a39.078,39.078,0,0,0-26.9-8.982c-7.6.346-14.467,2.788-19.042,9.331-5.456,7.809-5.775,22.544,6.977,28.986,6.8,3.432,14.105,5.271,21.249,7.656a120.132,120.132,0,0,1,15.377,6.054c9.407,4.664,14.03,12.653,14.536,23.05.333,6.917-.719,13.6-4.216,19.678-5,8.689-12.9,13.454-22.421,15.447a62.549,62.549,0,0,1-12.848,1.341A68.839,68.839,0,0,1-5125.211,109.712Zm-195.927,3.712c-11.659-4.159-19.668-12.29-24.562-23.578-3.944-9.1-5.522-18.68-5.788-28.539-.233-8.854.264-17.632,2.7-26.2,3.558-12.509,9.73-23.308,20.52-31.029a47.668,47.668,0,0,1,26.552-8.7c6.314-.243,12.561.23,18.457,2.727,9.139,3.874,14.749,10.5,15.7,20.651,1.664,17.822-7.709,28.295-18.831,34.222-8.184,4.357-17.041,6.472-26.139,7.722a136.579,136.579,0,0,1-21.927,1.1c-1.651-.04-3.3-.209-5.422-.352.248,2.606.389,4.9.692,7.169,1.291,9.753,4.216,18.858,10.8,26.447,5.709,6.583,13.048,10.061,21.607,11.023a44.91,44.91,0,0,0,34.2-9.976,6.061,6.061,0,0,1,1.148-.491c1.89,2.621,3.8,5.264,5.852,8.11a46.424,46.424,0,0,1-12.1,7.776,57.64,57.64,0,0,1-20.3,4.92q-2.146.132-4.271.133A55.66,55.66,0,0,1-5321.138,113.424Zm19.6-108.483A34.286,34.286,0,0,0-5326.342,16.2c-6.021,6.5-9.5,14.256-11.637,22.719a53.2,53.2,0,0,0-1.764,12.512c1.59.151,2.74.324,3.9.354A121.144,121.144,0,0,0-5313,50.293c7.365-1.213,14.541-3.062,21.14-6.717,7.836-4.339,14.187-11.93,12.043-23.37a17.316,17.316,0,0,0-9.351-12.915,22.77,22.77,0,0,0-10.8-2.382Q-5300.749,4.908-5301.536,4.941ZM-4911.527,108.1a35.075,35.075,0,0,1-6.724-13.265,52.457,52.457,0,0,0-6.135-14.542c-1.4,1.156-2.681,2.227-3.971,3.288-11.731,9.669-24.7,16.923-39.657,20.291a58.849,58.849,0,0,1-14.189,1.775c-1.224-.027-2.449-.018-3.674-.011-1.406.01-2.812.018-4.218-.022-2.216-.059-3.467-1.27-3.569-3.236a3.427,3.427,0,0,1,3.471-3.733c1.916-.106,3.838-.032,5.75-.029,12.184.007,23.452-3.416,34.167-9a97.451,97.451,0,0,0,18.63-12.784c1.036-.9,2-1.867,3.126-2.918-1.2-1.551-2.285-2.989-3.4-4.4-2.91-3.661-5.783-7.356-8.775-10.946-1.967-2.357-4.114-4.561-6.188-6.832-.857-.942-1.809-1.814-2.582-2.819-3.4-4.434-3.344-8.03.135-12.415.789-1,1.633-1.951,2.635-3.146-2.49-5.633-4.986-11.328-10.287-15.237a12.469,12.469,0,0,0-6.251-1.994c-9.9-1.193-19.415-3.609-28.035-8.869A52.882,52.882,0,0,1-5007.514-7.8c-8.609-12.459-7.849-27.474,3.932-38.709a55,55,0,0,1,15.062-10.607c9.589-4.36,23.41-3.016,30.933,5.522a35.98,35.98,0,0,1,7.192,13.385,79.083,79.083,0,0,1,3.972,25.693,88.355,88.355,0,0,1-3.952,23.8c-.219.7-.382,1.418-.617,2.286,4.942,4.124,7.6,9.839,10.458,15.3a71.484,71.484,0,0,1,6.811-3.229c5.464-1.934,9.34-.385,11.757,4.869,3.751,8.159,8.937,15.45,13.521,23.1.26.44.61.829,1.117,1.5a76.785,76.785,0,0,0,15.138-27.163c-2.283-2.419-4.628-4.721-6.76-7.207a46.907,46.907,0,0,1-10.095-17.91,29.279,29.279,0,0,1,.641-18.428c3.577-9.663,7.189-19.32,11.056-28.867,2.228-5.5,3.908-10.988,3.365-16.993a10.368,10.368,0,0,1,.219-2.854,5.666,5.666,0,0,1,5.316-4.668,12.6,12.6,0,0,1,7.281,1.954c9.2,5.309,15.949,12.985,21.043,22.161a58.889,58.889,0,0,1,7.716,26.04c.687,14.411-3.915,26.975-13.318,37.788-2.357,2.709-5.148,5.044-7.77,7.51a7.119,7.119,0,0,1-1.835,1.26,3.435,3.435,0,0,1-5.021-2.974,10.158,10.158,0,0,1,.3-2.509,181.145,181.145,0,0,0,3.867-27.712,53.534,53.534,0,0,0-6.908-29.709c-.419-.741-.918-1.435-1.3-2.193-1.01-2.01-.543-4.135,1.069-5.076a4.022,4.022,0,0,1,5.069,1.273,37.268,37.268,0,0,1,2.271,3.842,59.343,59.343,0,0,1,6.892,27.224,120.723,120.723,0,0,1-1.7,21.226c-.1.617-.095,1.25-.145,1.876.244.2.484.4.729.6a23.277,23.277,0,0,1,1.26-2.1c6.791-9.136,10.116-19.363,9.393-30.744a52.352,52.352,0,0,0-6.749-21.745,50.352,50.352,0,0,0-16.869-18.778c-.948-.614-1.983-1.091-3.366-1.844-.106,1.26-.234,2.053-.229,2.841a38,38,0,0,1-3.041,14.875q-5.191,12.684-10.056,25.5c-1.495,3.957-2.989,7.941-3.127,12.3A25.6,25.6,0,0,0-4899.9,6.465a49.4,49.4,0,0,0,11.716,14.976c4.363,3.8,4.414,3.881,2.569,9.521a84.3,84.3,0,0,1-16.459,29.258c-.271.308-.474.675-.908,1.3,2.48,2.755,4.794,5.663,7.457,8.209a71.653,71.653,0,0,1,11.768,14.2c4.521,7.359,4.808,15.2.18,22.619-3.5,5.621-8.866,8.451-14.315,8.452A17.642,17.642,0,0,1-4911.527,108.1Zm-19.916-75.667a44.106,44.106,0,0,0-13.57,10.1,18.711,18.711,0,0,0,1.345,1.908c1.6,1.692,3.354,3.248,4.839,5.037,4.207,5.055,8.252,10.244,12.461,15.3,7.288,8.78,12.748,18.479,15.538,29.638a22.984,22.984,0,0,0,5.628,9.882c4.005,4.357,9.387,4.555,13.772.505,4.668-4.322,5.281-12.092,1.065-17.734a123.561,123.561,0,0,0-9.444-11.166,106.539,106.539,0,0,1-13.829-17.028c-5.09-8.194-10.811-16.025-14.615-24.985-.548-1.287-1.037-1.856-1.806-1.856A3.439,3.439,0,0,0-4931.442,32.434Zm-74.7-57.416a24.063,24.063,0,0,0,4.9,13.549A50.332,50.332,0,0,0-4984.1,3c2.329,1.158,4.794,2.052,7.2,3.062.123-.208.246-.416.368-.621a74.476,74.476,0,0,1-17.062-16.344c-4.706-6.438-8.011-13.609-11.212-20.964C-5005.506-29.53-5006.294-27.226-5006.144-24.982Zm6.783-15.479c6.434,23.536,18.27,35.8,36.5,45.791-5.084-12.77-26.257-42.14-34.309-47.732C-4997.922-41.739-4998.687-41.061-4999.361-40.461Zm8.357-6.783c3.432,3.877,6.7,7.372,9.737,11.058,3.1,3.771,6.071,7.663,8.924,11.633,2.786,3.885,5.35,7.929,7.991,11.919,2.618,3.95,4.547,8.335,7.462,12.092-3.19-20.918-13.007-37.477-31.573-48.438C-4989.318-48.4-4990.077-47.874-4991-47.243Zm11.654-4.532c11.51,8.134,19.617,18.743,25.213,31.368a10.871,10.871,0,0,0-.028-2.449c-1.058-4.529-2.115-9.059-3.329-13.552a26.923,26.923,0,0,0-4.874-9.574,17.528,17.528,0,0,0-13.334-6.263A13.907,13.907,0,0,0-4979.35-51.775Zm-466.914,165.7c-6.234-17.166-12.536-34.5-18.837-51.852h-65.231q-9.195,25.961-18.372,51.849H-5561c18.489-51.827,36.858-103.31,55.257-154.88h15.808q28.118,77.162,56.435,154.882ZM-5498.39-29.569c-9.3,26.739-18.6,53.479-27.983,80.461h57.306c-9.638-27.044-19.161-53.765-28.686-80.484ZM-5169.828,113.3c0-38.2,0-76.267,0-114.679h11c.632,2.3.8,110.8.159,114.679ZM-5164.5-23.61c-5.63-.1-9.2-4.135-9.14-10.351a9.36,9.36,0,0,1,9.9-9.654c5.4.095,9.321,4.326,9.252,9.994-.068,5.807-4.208,10.012-9.815,10.014Z" transform="translate(5711.67 72.5)" fill="#fff"/>
    </g>
  </g>
</svg>
