<svg id="Carrito" xmlns="http://www.w3.org/2000/svg" width="78" height="64" viewBox="0 0 78 64">
  <rect id="Color" width="78" height="64" rx="4" fill="none"/>
  <circle id="Ellipse_46" data-name="Ellipse 46" cx="27" cy="27" r="27" transform="translate(24 5)" fill="#fff" opacity="0.12"/>
  <path id="Subtraction_2" data-name="Subtraction 2" d="M7058,1755a3,3,0,1,1,3-3A3,3,0,0,1,7058,1755Zm-15,0a3,3,0,1,1,3-3A2.995,2.995,0,0,1,7043,1755Zm18-7.5h-18a3,3,0,0,1-3-3,2.89,2.89,0,0,1,.376-1.44l2.024-3.675L7037,1728h-3v-3h4.9l1.411,3H7062.5a1.5,1.5,0,0,1,1.5,1.5,1.47,1.47,0,0,1-.181.721l-5.37,9.735a2.986,2.986,0,0,1-2.624,1.544h-11.176l-1.349,2.445-.046.181a.371.371,0,0,0,.376.374H7061v3Zm-19.6-16.865h0l3.751,7.426h10.867l4.148-7.426Z" transform="translate(-6998 -1708)" fill="#fff"/>
  <g id="Component_83_1" data-name="Component 83 – 1" transform="translate(57.999 38.999)" opacity="0">
    <circle id="Ellipse_47" data-name="Ellipse 47" cx="10" cy="10" r="10" fill="#fba2b4"/>
    <path id="Path_470" data-name="Path 470" d="M1.767.744H3.955v-6.3q0-.366.022-.769l-1.553,1.3a.551.551,0,0,1-.2.112.694.694,0,0,1-.2.03.586.586,0,0,1-.273-.063.509.509,0,0,1-.183-.146l-.582-.8,3.293-2.8H5.8V.744H7.741V2.126H1.767Z" transform="translate(5.631 13.256)" fill="#fff"/>
  </g>
</svg>
