<svg id="GoteadoVectorizado" xmlns="http://www.w3.org/2000/svg" xmlns:xlink="http://www.w3.org/1999/xlink" width="1920" height="1105">
  <defs>
    <clipPath id="clip-path">
      <rect id="Mascara" width="1920" height="1105" fill="none"/>
    </clipPath>
  </defs>
  <g id="Luces" transform="translate(78.778 816.342)">
    <g id="Glaseado" transform="translate(-78.778 -816.342)" clip-path="url(#clip-path)">
      <path id="SombraInvertida" d="M0,740.216c22.5,20.54,40.068,39.166,51.93,62.058,11.777,22.731,14.055,39.791,18.387,63.989,9.87,55.14,6.433,64.414,7.893,86.189,3.2,13.924,4.145,23.916,1.715,38.516-2.167,13.008-6.91,27.762-2.724,40.624,4.411,13.557,19.417,25.467,31.134,14.064,9.8-9.537,7.932-26.214,7.5-38.949-3.151-93.558-37.866-173.06,55.048-231.943C205.932,752.557,282.726,737,306.6,780c12.454,22.425,14.107,38.873,16.1,64.124,2.176,27.625-.294,34.18,7.852,59.871,7.884,24.876,49.125,4.67,52.506-25.846,2.875-25.971-10.182-60.659-11.95-85.706-2.722-38.528,17.726-102.322,65.223-103.524,35.1-.887,54.573,20.39,67.4,55.234,10.091,27.4-4.262,54.96,7.966,78.66,10.359,20.076,30.113,13.986,36.958,7.353,8.1-7.852,4.686-32.478,5.259-40.66,1.767-25.192,3.107-53.717,29.509-65.838,26.547-12.188,47.581-.376,72.128,13.063,21.233,11.629,49.079,25.734,66.861,24.946,18.07-.8,53.285-19.672,71.391-5.764,13.988,10.741,18.622,51.48,19.3,73.34.866,28.105-6.265,58.183-3.759,85.828,2.04,22.517-14.977,66.118,12.962,72.84,38.544,9.268,34.937-43.6,28.132-59-11.359-25.7-7.838-60.663-6.838-89.666s3.612-44.39,10.535-56.7,8.487-15.918,34.722-20.114,41.032,8.453,62.981-6.31c17.227-11.587,29.5-28.575,49.265-35.141,25.777-8.564,40.785-8.036,59.411,10.052,19.324,18.763,12.853,52.193,15.018,80.217,1.437,18.611-10.83,68.747,32.066,68.1s26.312-53.324,27.42-70.58c1.649-25.679,5.345-48.178,23.628-67.92,29.553-31.911,110.329-51.913,123.005,4.225,5.024,22.258-1.13,61.052,16.807,78.62,29.013,28.417,43.585-23.034,36.374-42.766-4.441-12.155-30.459-56.233-1.4-60.875,11.011-1.759,36.775.94,37.4,17.583,2.171,57.332,4.1,112.981,5.849,169.668.71,23.018-35.212,108.094,17.162,100.8,18.66-2.028,18.576-24.743,18.576-24.743s-18.651-172.96-11.7-230.774c2.153-17.9,14.711-42.42,34.176-47.857s45.282.5,43.682,26.109c-1.727,27.713,5.813,47.323,7.935,74.4.776,9.9-.032,20.746-1.274,32.231-2.277,21.048-6.058,43.482-2.847,62.149,2.562,14.9-12.462,56.148,10.752,65.212,29.76-.976,19.558-68.083,14.358-113.588s-2.94-61.023-2.147-79.808c1.95-46.155,29.9-77.358,80.986-75.933,45.759.213,77.652,30.825,76.077,69.4-1.022,25.075-15.085,51.785-11.613,77.687,4.083,30.435,44.507,19.268,51.422-5.761,4.015-12.276,4.015-12.276,5.764-29.508,1.229-25.284,3.374-36.159,14.757-58.835,22.8-26.884,39.674-29.527,74.016-8.056,91.047,56.928,56.224,121.864,55.729,215.456-.068,12.739-4.167,27.7,6.459,42.066,15.708,16.909,30.094,5.31,33.974-8.337,3.681-12.943-1.286-27.6-3.725-40.553-2.734-14.544-4.454-26.776-2.833-40.907,2.488-21.687.693-28.628,8.7-83.954,2.547-17.587,14.806-57.8,24.925-71.612V-52.241H0Z" transform="translate(0 52.241)" fill="#ffc1ce"/>
      <path id="Color" d="M0-54.049V738.408c18.333,19.3,38.988,40,50.816,62.677C62.562,823.6,68.713,859.844,71,884.055c5.071,53.675,10.09,88.522,7.662,102.987-2.164,12.887-6.9,27.506-2.725,40.245,4.4,13.43,16.569,19.257,28.262,7.957,9.778-9.448,7.92-25.968,7.495-38.584-3.124-92.684-37.738-170.765,54.97-229.115,34.97-22.008,106.018-34,129.829,8.59,12.418,22.216,14.92,32.193,16.9,57.206,2.163,27.367-3.372,63.6,16.4,75.688s41.655-3.825,45.034-34.057c2.876-25.728-8.944-57.6-10.7-82.414-2.708-38.169,14.932-106.448,62.321-107.648,35.015-.886,63.038,18.685,75.832,53.2,10.06,27.142-4.263,54.448,7.93,77.922,10.329,19.888,26.505,12.221,33.338,5.648,8.084-7.779,4.681-32.175,5.255-40.281,1.77-24.956,3.111-53.215,29.455-65.227,26.487-12.078,47.47-.383,71.957,12.931,21.181,11.515,48.958,25.483,66.7,24.7,18.027-.8,53.267-20.736,71.764-7.547,20.663,14.733,13.824,32.62,18.432,72.687s-2.493,60.193,0,87.582c2.03,22.307-17.951,73.736,17.146,80.236s27.13-52.051,20.346-67.3c-11.329-25.461-6.5-83.477-6.5-83.477a378.7,378.7,0,0,1,5.246-46.216c9.62-23.908,12.936-30.948,39.635-34.651,24.888-3.449,40.934,8.322,62.835-6.308,17.187-11.481,29.438-28.312,49.158-34.821,25.721-8.489,45.937-7.246,64.518,10.667,19.274,18.584,12.812,51.7,14.967,79.467,1.429,18.436-13.005,67.575,31.746,67.1,33.241-1.479,21.246-53.2,22.354-70.3,1.649-25.439,5.341-47.729,23.585-67.289,29.491-31.617,115.355-49.862,127.987,5.747,5.01,22.05-1.136,60.482,16.752,77.883,28.938,28.144,38.218-24.412,31.028-43.959-4.429-12.039-28.885-55.707,0-60.876,11.227-2.008,29.126-1,36.126,21s2.006,91.212,3.736,147.366c.7,22.8-24.359,116.167,15.938,119.418s18.154-35.993,13.061-148.672a568.155,568.155,0,0,1-2.746-71.58c.3-12.811,1.118-26.934,2.746-41.146.031-.268,8.46-32.7,30.766-38.081s31.985,2.691,43.793,22.379,7.19,24.817,6.272,83.742-19.112,147.187,12.083,154.9,11.99-109.631,9.892-146.459c-4.028-70.728,6.591-123.63,84.577-129.293,63.707,5.663,76.19,32.415,74.62,70.627-1.021,24.839-15.052,51.3-11.584,76.958,4.073,30.151,41.881,21.663,48.78-3.131,5.172-13.959,5.192-17.344,5.766-28.72,1.226-25.045,3.37-35.608,14.724-58.074,21.378-28.913,41.973-31.818,76.235-10.545,90.835,56.4,58.63,129.572,58.137,222.289-.067,12.621-1.408,29.174,8.262,38.415,11.564,11.052,23.124,4.974,26.992-8.544,3.674-12.822-1.282-27.336-3.715-40.173-2.729-14.409,1.157-49.348,4.583-103.11,1.545-24.25,12.3-68.812,33.05-91.22V-54.049Z" transform="translate(0 54.049)" fill="#fba2b4"/>
      <g id="Mancha" transform="translate(1710.91 713.223) rotate(-63)" opacity="0.6">
        <path id="Medio" d="M-6232.86,542.189a2.374,2.374,0,0,1,1.964-2.4c9.054-.99,17.23-5.757,26.587-5.708,7.36.046,14.109-3.558,21.316-4.74.681,3.934-3,4.019-4.829,4.3-9.852,1.494-18.937,5.45-28.388,8.211a28.987,28.987,0,0,1-8.2,1.108A54.963,54.963,0,0,1-6232.86,542.189Zm110.609-33.155c-.363.655-.787,1.753.128,1.815,4.889.3,9.547-.223,12.371-5.061,2.682-1.665,5.77-2.746,8-5.536-4.781-1.67-7.589-7.406-13.65-5.778-.187-3.572-2.824-3.319-5.079-2.9a47.414,47.414,0,0,0-7.472,2.326c-1.646.607-2.894-.449-4.325-.7-.691-.794-1.08-.463-1.331.361-.685.06-1.355.108-2.04.164-3.08-1.844-.637-2.146.766-2.637,7.8-2.7,15.615-5.362,23.429-8.039-4.467-.125-8.559.958-12.627,2.106-5.387,1.521-10.734,3.165-16.146,4.612-1.4.378-3.082.58-3.937-1.181-1.208-2.49,1.575-1.907,2.334-2.9,1.412-1.853,3.64-1.557,5.64-1.978,2.425-.5,5.729-.443,5.988-3.8.213-2.813,1.671-2.99,3.83-3.676,7.487-2.38,14.847-5.17,22.248-7.809-2.775-.6-5.279.054-7.76.71a18.192,18.192,0,0,1-6.4.9l-.07-.077c-.6-2.821-2.61-3.466-5.185-4.249-3.845-1.167-6.559,1.276-9.523,2.332-3.765,1.331-4.622.688-3.526-2.962-1.515-.036-2.354,1.116-3.135,2.267-1.088,1.6-2.062,3.208-4.582,1.6-2.345-1.494-4.606-1.369-6.206.1-2.38,2.18-5.514,1.774-8.633,1.368-4.133-.539-8.243-1.077-10.526,4.413-.033.081-.432.128-.538.044-3.53-2.962-8.2-.432-12.151-2.811,22.582-7.531,45.37-14.142,67.545-22.584-.713-.658-1.292-.9-1.766-.753-14.85,4.44-29.612,9.243-44.59,13.25-6.4,1.719-13.119,7.786-19.956.6a1.239,1.239,0,0,0-1.094-.095c-6.371,2.574-13.7.455-19.938,4.315-1.888,1.164-4.922,2.854-7.311,1.04-4.29-3.245-8.611-1.439-12.914-.659-1.926.356-3.727,1.523-5.415.036.081-2.416,2.974-1.674,3.265-3.48-.817-1.259-2.019-1.251-3.225-1.243a5.169,5.169,0,0,1-2.154-.283c5.591-3.21,11.682-3.5,17.458-4.916l-33.374,1.711c-.586-.8-1.017-.6-1.347.21-1.438.194-2.866.392-4.305.588-.087-2.716-1.581-3.388-4.09-3.134-4.785.495-9.585.772-15.386,1.213,2.595-3.346,4.018-6.748.087-8.288a12.9,12.9,0,0,0-8.984.145c-2.786,1.217-4.462,1-6.416-.836,2.309-4.233,6.573-5.68,10.567-7.621,7.126-3.46,13.77-9.24,22.362-3.17,1.895,1.333,3.27-1.039,4.611-2.239,3.185-1.039-.054-3.945,1.466-5.449,1.447.484,2.775.928,4.1,1.376,2.193-.474,4.165.237,6.136.949a13.47,13.47,0,0,0,4.843,1.1c1.99-3.265,10.491-4.62,10.491-4.62s5.6-3.676,7.238-8.178,13.212-6.353,13.212-6.353c3.632-1.986,3.028-7.169,6.182-8.415,4.005-1.583,4.454-9.036,7.857-7.714,2.273.885,10.027,6.2,21.548-1.64.576-.262,1.149-.525,1.717-.781,2.485-1.028,2.827.438,2.759,2.375a.04.04,0,0,1-.006.016c-3.093,3.313-.292,6.031.9,8.9l-.038-.022c.562,1.083-.7,2.837,1.235,3.43.74.063,1.477.123,2.206.183,3.061,1.812,6.592,1.752,9.923,2.285,1.559.247,3.1-1.138,2.764-3.316,3.168-3.643,8.382.28,11.708-4.361.846,4.222.138,5.994-3.208,7.047-9.084,2.865-10.711,5.795-8.73,14.494.8,3.524,5.028,1.976,8.067.147,7.016-4.212,13.1-10.973,14.95-12.569,2.521-2.172,5.9-2.059,9.213-1.945,1.024.035,2.041.07,3.025.038,5.388.925,8.046.517,8.827-3.053-1.27-4.064-1.41-8.793-7.144-9.866-1.061-.2-1.373-2.288.666-3.376,4.452-2.384,8.2-5.077,6.22-11.413-1.034-3.3,5.909-8.407,9.9-7.884a5.75,5.75,0,0,0,2.107-.6c-1.678-4.772,3.69-4.925,5.164-7.732,2-3.785,5.156-6.96,7.158-10.749,3.076-5.819,6.828-11.176,10.287-16.735,1.472-.911,2.911-1.844,2.622-3.934l.242-.253c.757.125,1.027-.16.755-.9l.275-.329q1.157.225.765-.882l.251-.307c1.5.574,2.353-.474,3.471-1.167,3.421-2.09,6.731-4.753,10.481-5.85,13.056-3.834,25.377-9.643,38.353-13.653,9.349-4.108,19.5-3.924,29.314-4.849,7.921-.745,15.933-.876,23.905-1.679,7.074-.71,14.223-2.86,21.383-.4,3.25.985,5.906,1,5.923-3.486,22.422,7.684,36.082,25.093,47.558,44.286,4.644,7.757,9.794,15.658,11.863,24.754,2.514,11.027,3.091,21.893.2,33.253-2.234,8.758-4.449,17.111-9.358,24.84-5.272,8.285-13.489,11.495-21.959,14.686-14.191,5.344-29.307,7.246-43.671,11.873-17.853,5.749-35.911,10.744-54.1,15.3a88.736,88.736,0,0,0-21.811,9.013c-12.818,7.2-26.739,11.865-39.93,18.213-8.059,3.883-17.5,2.315-25.691,5.909-6.5,2.849-13.637,2.233-20.4,3.782-6.05,1.382-11.292,4.737-17.32,5.918-4.529-1.3-9.057-.262-13.587.024C-6131.935,512.974-6127.626,509.858-6122.25,509.034Zm146.5-55.628c-4.139,2.206-8.924.813-13.177,2.452-8.557,3.286-17.179,6.4-25.7,9.767-7.658,3.025-15.448,5.838-22.751,9.58-6.121,3.129-12.755,4.706-19.037,7.31a82.812,82.812,0,0,1-13.9,4.532c-9.008,1.964-17.671,5.463-26.953,8.475,6.654,5.036,48.9-6.7,71.116-19,3.339-1.531,6.842-2.769,9.691-5.219a20.263,20.263,0,0,0,6.883-2.947c6.607-.177,12.563-3.05,18.586-5.156,5.534-1.942,11.958-1.072,16.722-5.291.318-.326.646-.645.966-.968,1.48-.583,2.952-1.156,4.426-1.733,9.122-2.324,18.324-4.427,26.662-9.027,8.911-.727,17.155-3.728,25.214-7.381,5.281,1.3,9.5-.417,13.819-5.646-4.331.332-7.846.081-11.068.95-7.844,2.116-16.966.909-22.86,8.367-1.814.509-3.871.231-5.377,1.692-.985-2.173-1.619-1.274-2.253-.378-.455.644-.909,1.285-1.491.8C-5956.667,445.543-5965.988,450.233-5975.752,453.406Zm-151.5,26.076c.134.294.212.764.437.833s.579-.229.88-.373c-.145-.293-.232-.764-.45-.84a.229.229,0,0,0-.076-.012C-6126.682,479.091-6127,479.353-6127.251,479.482Zm181.358-163.51c4.933,1.526,9.473,1.1,13.731,2.591a3.475,3.475,0,0,0,4.894-3.041c.331-2.386-1.41-2.231-2.647-2.076a3.729,3.729,0,0,1-.983.06,18.61,18.61,0,0,0-4.142-.467A23.525,23.525,0,0,0-5945.894,315.973Zm-317.6,179.478c2.035-.117,3.811-.085,3.839-2.761.122-.457.494-1.11.324-1.328-.61-.762-1.157-.245-1.617.311-3.457-.561-6.775-2.125-10.455-1.494,7.91-1.79,15.75-4.114,23.668-2.1-3.309,13.949-15.655,8.25-24.081,11.305C-6269.946,496.1-6266.714,495.636-6263.5,495.451Zm-36.651-68.763c-.09-2.386,2.251-3.17,4.424-3.5a7.976,7.976,0,0,1,1.481-.033,4.077,4.077,0,0,0,2.889-.618c-.133,1.143.2,1.853,1.434,1.181.559-.3,1.382-1.135,1.273-1.472-.237-.761-1.116-.715-1.85-.416,1.11-.512,2.229-2.225,1.749-2.446-3.964-1.859-.158-3.929-.3-5.819-.254-3.469,1.442-3.093,3.148-2.715a3.7,3.7,0,0,0,2.388.054,5.014,5.014,0,0,1,1.086-.248c2.574-.776,4.951-3.8,7.768-1.754a56.844,56.844,0,0,1,10.306,9.209c1.339,1.608-.407,4.663-2.3,5.624-3.423,1.742-6.524,4.511-10.782,4.3a81.454,81.454,0,0,0-17.891.944,11.328,11.328,0,0,1-1.9.2C-6298.7,429.168-6300.069,428.682-6300.147,426.688Zm51.953-2.056c-1.462-.365-2.484-1.02-2.535-2.463-.062-1.768,1.435-1.853,2.744-2.025q6.076-.783,12.146-1.606c2.208.283,2.972,1.752,3.058,3.762a19.535,19.535,0,0,1-10.279,3A20.853,20.853,0,0,1-6248.194,424.632Zm4.127-22.06a9.817,9.817,0,0,1,8.249-2.886,3.218,3.218,0,0,1,1.686,2.408,8.2,8.2,0,0,1-4.542,1.257A28.112,28.112,0,0,1-6244.067,402.572Zm19.16-11.715c2.144.8,6.4.7,8.785-2.027,2.626-3.007,3.929.062,5.15,1.274,1.9,1.877-1.071,2.147-1.575,3.29q-10.018.79-20.022,1.561C-6230.959,391.885-6229.867,389.017-6224.907,390.857Z" transform="translate(6300.164 -303.719)" fill="#fcb5c3"/>
        <path id="Claro" d="M-6313.869,432.664a3.153,3.153,0,0,1,3.531-1.825c.232.011.456.022.671.019,8.55-.166,15.58-4.775,23.148-7.772,5.877-2.314,11.906-2.772,18.156-2.381,4.849.3,9.407-1.4,13.946-3.1,2.231-.833,5.142-3.434,6.984.8-7.206,1.183-13.952,4.783-21.315,4.74-9.36-.049-17.533,4.718-26.586,5.706a2.371,2.371,0,0,0-1.962,2.4c-4.26.215-8.455,1.788-12.944,1.788A16.7,16.7,0,0,1-6313.869,432.664Zm112.954-27.98c4.531-.282,9.056-1.325,13.59-.022-3.016.029-6.025.817-9.04.817A12.249,12.249,0,0,1-6200.916,404.684Zm14.34-4.766c-.914-.061-.488-1.161-.126-1.815,3.8-2.5,8.266-2.423,12.5-3.246-2.426,4.159-6.21,5.128-10.333,5.128C-6185.209,399.985-6185.89,399.96-6186.576,399.918Zm-21.528-6.037c.19-3.1,1.935-4.293,4.683-4.352,1.887-.046,3.918.07,3.86,3.36-.412,2.458-2.278,4.061-5.215,4.257-.163.011-.321.016-.474.016C-6207.126,397.162-6208.252,396.3-6208.1,393.882Zm-64.489-9.118c6.545-2.59,13.588.115,19.268-4.29.048-.493-.628-.384-1.317-.276-.909.14-1.839.284-1.15-.952,2.107-3.8.2-3.716-2.771-4.156-3.924-.574-7.4.8-11.022,1.522-5.942,1.188-11.8,5.167-17.794.193-5.552,4.024-6.89-3.646-10.987-3.681,7.688-3.04,16.146-2.665,23.357-7-3.415.608-6.835,1.222-10.265,1.812-3.5.606-7,1.081-10.366-.662-.04-1.41,1.759-1.6,2.419-2.85a32.572,32.572,0,0,0-8.9,1.131,29.35,29.35,0,0,1-9.2,1.085c-2.139-.2-4.866.581-3.924-3.459.289-1.263-.765-3.045-2.887-1.512-1.505,1.1-2.56.408-2.778-1.233-.229-1.657,1.061-2.389,2.427-2.52,4.424-.429,8.871-.708,13.193-1.041-4.939-2.75-9.7.673-14.624.678-2.044,0-5.312,1.258-5.373-1.856-.03-1.817,2.751-2.679,5.448-3.262,5.583-1.214,10.914-.4,15.549-4.7,4.137.094,13.85-1.544,23.235-3.182,9.476-1.657,18.619-3.311,21.354-3.18,6.009.287-11.379,3.574-17.2,5-5.777,1.413-11.863,1.7-17.456,4.912a5.182,5.182,0,0,0,2.155.284c1.208-.008,2.408-.016,3.225,1.244-.293,1.807-3.185,1.064-3.268,3.48,1.689,1.486,3.491.319,5.417-.035,4.3-.78,8.624-2.584,12.912.659,2.391,1.813,5.428.126,7.31-1.04,6.244-3.86,13.569-1.74,19.941-4.316a1.256,1.256,0,0,1,1.092.094c6.84,7.187,13.553,1.12,19.958-.6,14.978-4.008,29.737-8.81,44.588-13.252.477-.14,1.052.1,1.769.753-22.174,8.443-44.963,15.057-67.548,22.585,3.949,2.378,8.624-.15,12.155,2.812.1.085.507.038.536-.043,2.282-5.49,6.391-4.952,10.524-4.415,3.122.407,6.257.812,8.635-1.368,1.6-1.472,3.858-1.6,6.206-.1,2.521,1.6,3.5,0,4.584-1.6.78-1.152,1.619-2.3,3.132-2.268-1.094,3.649-.236,4.295,3.526,2.963,2.966-1.057,5.682-3.5,9.524-2.333,2.573.783,4.587,1.426,5.18,4.255-.81.226-1.624.459-2.438.689.111.142.2.368.336.4a1.747,1.747,0,0,0,2.175-1.019,18.193,18.193,0,0,0,6.4-.9c2.482-.657,4.987-1.313,7.762-.71-7.4,2.638-14.762,5.429-22.251,7.809-2.16.686-3.617.866-3.828,3.676-.26,3.36-3.563,3.306-5.986,3.8-2,.421-4.228.123-5.641,1.978-.761.992-3.541.407-2.335,2.9.858,1.762,2.539,1.56,3.939,1.179,5.408-1.445,10.758-3.091,16.146-4.611,4.065-1.152,8.155-2.234,12.625-2.107-7.815,2.675-15.63,5.336-23.427,8.04-1.408.488-3.847.793-.766,2.636-2.357,1.587-4.885,1.531-7.458,1.477-.927-.021-1.86-.04-2.793.018-7.692.463-15.441.092-23.1,1.486a27.2,27.2,0,0,1-7.815-.094,30.011,30.011,0,0,0-7.3-.19c-4.415.587-8.9.218-13.258,1.847a9.212,9.212,0,0,1-3.239.6C-6267.48,387.944-6269.972,386.915-6272.592,384.764Zm110.9-.171c9.281-3.013,17.944-6.512,26.952-8.475a82.922,82.922,0,0,0,13.9-4.533c6.28-2.6,12.917-4.179,19.036-7.3,7.306-3.748,15.092-6.56,22.752-9.585,8.52-3.367,17.14-6.483,25.7-9.765,4.255-1.64,9.042-.249,13.179-2.453,3.579-.753,3.247,1.23,2.454,3.529-.322.324-.65.643-.968.97-.6-1.392-1.769-1.2-2.83-.84-10.874,3.641-21.944,6.708-32.481,11.289a20.253,20.253,0,0,1-6.884,2.947c-4.256,1.47-8.508,2.943-13.984,4.834,2.265.2,3.281.3,4.3.384-18.6,10.3-51.228,20.2-65.272,20.2C-6158.584,385.788-6160.611,385.413-6161.7,384.593Zm-35.019-2.322c-.455.118-.887.239-1.333.359C-6197.792,381.807-6197.407,381.475-6196.714,382.271Zm5.461-12.885c-.22-.069-.3-.539-.437-.833.285-.147.646-.458.868-.38s.308.549.451.839c-.27.128-.583.386-.8.386A.228.228,0,0,1-6191.253,369.386Zm-151.078-9.659c-1.287-1.555-2.673-1.437-4.223-1.321a7.391,7.391,0,0,1-3.78-.432c4.086-.609,7.52-2.12,9.933-1.147,1.783.721,3.339,3.019,5.711,3.655a107.37,107.37,0,0,0-16.319,1.439C-6348.609,359.983-6345.458,360.86-6342.332,359.727Zm7.9.817s.058-.064.061-.065c.314.073.628.155.939.234C-6333.762,360.656-6334.1,360.6-6334.432,360.544Zm-.258-.061c.105,0,.21,0,.316,0l-.061.065Q-6334.564,360.517-6334.69,360.483Zm-11.5-10.357c.721-1.352-1.656-3.2-3.863-4.08-4.794-1.9-4.868-4.185-.662-8.065,1.954,1.837,3.632,2.054,6.417.836a12.9,12.9,0,0,1,8.984-.145c3.931,1.544,2.507,4.944-.086,8.289,5.8-.442,10.6-.719,15.386-1.212,2.51-.254,4,.418,4.091,3.132-9.189,1.834-18.318,4.021-27.743,4.271-.622.019-1.355.142-1.973.142C-6346.853,353.294-6347.614,352.817-6346.192,350.126Zm35.919-2.043c-.441.077-.9.144-1.348.211C-6311.292,347.485-6310.861,347.284-6310.273,348.083Zm279.7-7.706c6.7-2.022,13.276-4.448,19.9-6.724.582.486,1.037-.156,1.491-.8.635-.9,1.268-1.794,2.252.378.088.679.177,1.351.272,2.019-8.346,4.6-17.545,6.7-26.658,9.029C-6033.606,342.121-6032.875,341.07-6030.57,340.377Zm-285.677-19.617c.26-1.829,7.926-5.332,9.394-4.113,1.989,1.632-.446,2.809-.762,4.23-1.327-.447-2.657-.892-4.1-1.376-1.518,1.5,1.719,4.411-1.464,5.45C-6312.034,321.965-6316.59,323.152-6316.247,320.76Zm15.968-13.156c.675-.276,1.375-.844,2-.769a6.206,6.206,0,0,0,1.945-.233c1.49-.329,2.97-.657,3.378,1.3.484,2.324-2.134,3.126-4.267,3.461C-6297.31,309.358-6298.062,307.889-6300.279,307.6Zm36.585-.11c0-.71-.051-1.745.935-1.445,1.179.364,1.464,1.537,1.223,2.753C-6262.254,308.364-6262.974,307.924-6263.694,307.494Zm52.288-5.1c-3.33-.534-6.863-.475-9.922-2.285,2.265-2.011,4.727-1.53,7.191-1.049,1.858.362,3.718.724,5.494.019.314,2.01-.978,3.343-2.4,3.344A2.3,2.3,0,0,1-6211.406,302.4Zm-87.784-1.529a2.6,2.6,0,0,1,2.733-2.812c2.552.041,5.105.034,8.174.026,1.293,0,2.68-.006,4.2,0-4.628,2.483-8.419,3.061-12.1,3.836a8.861,8.861,0,0,1-1.772.337C-6298.627,302.248-6299.171,301.956-6299.19,300.867Zm74.422-4.37.019,0c-1.2-2.866-3.973-5.574-.89-8.88-.182,1.936.394,3.247,2.611,3.236.51.483,1.018.966,1.531,1.445-1.582,1.018-4.209,1.226-3.25,4.2,1.064-.164,2.523-.743,3.014.317.637,1.392-1.684,1.756-1.8,3.118C-6225.473,299.334-6224.205,297.581-6224.768,296.5Zm-67.8-4.048c-2.016-.329-4.006-.852-6-1.284a3.226,3.226,0,0,0-1.689-2.408c-.44-2.628,2.043-3.246,3.25-4.73q10.011-.782,20.022-1.561a16.469,16.469,0,0,1-4.544,8.545c-1.421,1.386-3.839,1.845-6.4,1.845A29.785,29.785,0,0,1-6292.565,292.449Zm69.548-1.6c6.548-2.236,13.016-4.63,18.143-9.556l.113.1-.115-.1c.8-1.523-1.381-4.619,2.253-4.59,3.126.022,1.8,2.71,2.181,4.266.419,1.77.194,3.8,3.69,3.649-3.609,2-6.346,3.553-9.645,3.579q-7.54,2.048-15.09,4.1C-6222,291.819-6222.507,291.336-6223.017,290.853Zm16.622-2.654c.763-1.922,4.3-3.234,2.676-5.679C-6202.1,284.963-6205.635,286.275-6206.4,288.2Zm-21.983-2.971c-1.326-3.542-5.01-2.85-7.6-4.234-.16-2.649,2.311-3.636,3.563-5.365,1.812-2.507,4.25-3.185,4.8.671.537,3.8,6.185,6.732,1.992,11.3C-6225.551,285.665-6225.891,284.2-6228.379,285.228Zm-8.67-13.655c1.8-.713.759-2.464-.938-2.285-2.866.308-2.222-1.522-2.453-3.1a2.619,2.619,0,0,1,2.978-3.145,8.521,8.521,0,0,0,2.314-.1c2.263-.292,4.638-.585,4.806,3.636.025.678.531.544,1.193.407a2.032,2.032,0,0,1,2.495.855c-7.184,1.006-7.818,9.8-16,12.531C-6239.9,276.757-6240.947,273.118-6237.049,271.572Zm16.914,1.941c-1.206-.584-1.212-1.726-.837-2.895.563-1.761,1.64-2.161,3.431-1.718,3,.74,5.762-.836,8.757-.93-2.561,1.689-6,1.766-6.786,5.764-.091.458-.582.632-1.237.633A8.906,8.906,0,0,1-6220.135,273.513Zm-3.317-7.839c1.56-2.493,3.96-1.99,6.022-2.354-1.5,1.222-3.019,2.4-5.228,2.4A6.556,6.556,0,0,1-6223.453,265.674Zm6.156-2.462,0,0c.042,0,.082-.008.123-.013l-.043.081,0,0c-.07.014-.142.027-.214.04Zm5.477-2.469a8.984,8.984,0,0,1-5.359,2.451C-6216.121,261.2-6214.365,260.8-6211.819,260.743Z" transform="translate(6364.602 -192.79)" fill="#ffd9e1"/>
      </g>
      <g id="Mancha-2" data-name="Mancha" transform="translate(1343.293 243.953) rotate(-74)" opacity="0.6">
        <path id="Medio-2" data-name="Medio" d="M-6232.86,542.189a2.374,2.374,0,0,1,1.964-2.4c9.054-.99,17.23-5.757,26.587-5.708,7.36.046,14.109-3.558,21.316-4.74.681,3.934-3,4.019-4.829,4.3-9.852,1.494-18.937,5.45-28.388,8.211a28.987,28.987,0,0,1-8.2,1.108A54.963,54.963,0,0,1-6232.86,542.189Zm110.609-33.155c-.363.655-.787,1.753.128,1.815,4.889.3,9.547-.223,12.371-5.061,2.682-1.665,5.77-2.746,8-5.536-4.781-1.67-7.589-7.406-13.65-5.778-.187-3.572-2.824-3.319-5.079-2.9a47.414,47.414,0,0,0-7.472,2.326c-1.646.607-2.894-.449-4.325-.7-.691-.794-1.08-.463-1.331.361-.685.06-1.355.108-2.04.164-3.08-1.844-.637-2.146.766-2.637,7.8-2.7,15.615-5.362,23.429-8.039-4.467-.125-8.559.958-12.627,2.106-5.387,1.521-10.734,3.165-16.146,4.612-1.4.378-3.082.58-3.937-1.181-1.208-2.49,1.575-1.907,2.334-2.9,1.412-1.853,3.64-1.557,5.64-1.978,2.425-.5,5.729-.443,5.988-3.8.213-2.813,1.671-2.99,3.83-3.676,7.487-2.38,14.847-5.17,22.248-7.809-2.775-.6-5.279.054-7.76.71a18.192,18.192,0,0,1-6.4.9l-.07-.077c-.6-2.821-2.61-3.466-5.185-4.249-3.845-1.167-6.559,1.276-9.523,2.332-3.765,1.331-4.622.688-3.526-2.962-1.515-.036-2.354,1.116-3.135,2.267-1.088,1.6-2.062,3.208-4.582,1.6-2.345-1.494-4.606-1.369-6.206.1-2.38,2.18-5.514,1.774-8.633,1.368-4.133-.539-8.243-1.077-10.526,4.413-.033.081-.432.128-.538.044-3.53-2.962-8.2-.432-12.151-2.811,22.582-7.531,45.37-14.142,67.545-22.584-.713-.658-1.292-.9-1.766-.753-14.85,4.44-29.612,9.243-44.59,13.25-6.4,1.719-13.119,7.786-19.956.6a1.239,1.239,0,0,0-1.094-.095c-6.371,2.574-13.7.455-19.938,4.315-1.888,1.164-4.922,2.854-7.311,1.04-4.29-3.245-8.611-1.439-12.914-.659-1.926.356-3.727,1.523-5.415.036.081-2.416,2.974-1.674,3.265-3.48-.817-1.259-2.019-1.251-3.225-1.243a5.169,5.169,0,0,1-2.154-.283c5.591-3.21,11.682-3.5,17.458-4.916l-33.374,1.711c-.586-.8-1.017-.6-1.347.21-1.438.194-2.866.392-4.305.588-.087-2.716-1.581-3.388-4.09-3.134-4.785.495-9.585.772-15.386,1.213,2.595-3.346,4.018-6.748.087-8.288a12.9,12.9,0,0,0-8.984.145c-2.786,1.217-4.462,1-6.416-.836,2.309-4.233,6.573-5.68,10.567-7.621,7.126-3.46,13.77-9.24,22.362-3.17,1.895,1.333,3.27-1.039,4.611-2.239,3.185-1.039-.054-3.945,1.466-5.449,1.447.484,2.775.928,4.1,1.376,2.193-.474,4.165.237,6.136.949a13.47,13.47,0,0,0,4.843,1.1c1.99-3.265,10.491-4.62,10.491-4.62s5.6-3.676,7.238-8.178,13.212-6.353,13.212-6.353c3.632-1.986,3.028-7.169,6.182-8.415,4.005-1.583,4.454-9.036,7.857-7.714,2.273.885,10.027,6.2,21.548-1.64.576-.262,1.149-.525,1.717-.781,2.485-1.028,2.827.438,2.759,2.375a.04.04,0,0,1-.006.016c-3.093,3.313-.292,6.031.9,8.9l-.038-.022c.562,1.083-.7,2.837,1.235,3.43.74.063,1.477.123,2.206.183,3.061,1.812,6.592,1.752,9.923,2.285,1.559.247,3.1-1.138,2.764-3.316,3.168-3.643,8.382.28,11.708-4.361.846,4.222.138,5.994-3.208,7.047-9.084,2.865-10.711,5.795-8.73,14.494.8,3.524,5.028,1.976,8.067.147,7.016-4.212,13.1-10.973,14.95-12.569,2.521-2.172,5.9-2.059,9.213-1.945,1.024.035,2.041.07,3.025.038,5.388.925,8.046.517,8.827-3.053-1.27-4.064-1.41-8.793-7.144-9.866-1.061-.2-1.373-2.288.666-3.376,4.452-2.384,8.2-5.077,6.22-11.413-1.034-3.3,5.909-8.407,9.9-7.884a5.75,5.75,0,0,0,2.107-.6c-1.678-4.772,3.69-4.925,5.164-7.732,2-3.785,5.156-6.96,7.158-10.749,3.076-5.819,6.828-11.176,10.287-16.735,1.472-.911,2.911-1.844,2.622-3.934l.242-.253c.757.125,1.027-.16.755-.9l.275-.329q1.157.225.765-.882l.251-.307c1.5.574,2.353-.474,3.471-1.167,3.421-2.09,6.731-4.753,10.481-5.85,13.056-3.834,25.377-9.643,38.353-13.653,9.349-4.108,19.5-3.924,29.314-4.849,7.921-.745,15.933-.876,23.905-1.679,7.074-.71,14.223-2.86,21.383-.4,3.25.985,5.906,1,5.923-3.486,22.422,7.684,36.082,25.093,47.558,44.286,4.644,7.757,9.794,15.658,11.863,24.754,2.514,11.027,3.091,21.893.2,33.253-2.234,8.758-4.449,17.111-9.358,24.84-5.272,8.285-13.489,11.495-21.959,14.686-14.191,5.344-29.307,7.246-43.671,11.873-17.853,5.749-35.911,10.744-54.1,15.3a88.736,88.736,0,0,0-21.811,9.013c-12.818,7.2-26.739,11.865-39.93,18.213-8.059,3.883-17.5,2.315-25.691,5.909-6.5,2.849-13.637,2.233-20.4,3.782-6.05,1.382-11.292,4.737-17.32,5.918-4.529-1.3-9.057-.262-13.587.024C-6131.935,512.974-6127.626,509.858-6122.25,509.034Zm146.5-55.628c-4.139,2.206-8.924.813-13.177,2.452-8.557,3.286-17.179,6.4-25.7,9.767-7.658,3.025-15.448,5.838-22.751,9.58-6.121,3.129-12.755,4.706-19.037,7.31a82.812,82.812,0,0,1-13.9,4.532c-9.008,1.964-17.671,5.463-26.953,8.475,6.654,5.036,48.9-6.7,71.116-19,3.339-1.531,6.842-2.769,9.691-5.219a20.263,20.263,0,0,0,6.883-2.947c6.607-.177,12.563-3.05,18.586-5.156,5.534-1.942,11.958-1.072,16.722-5.291.318-.326.646-.645.966-.968,1.48-.583,2.952-1.156,4.426-1.733,9.122-2.324,18.324-4.427,26.662-9.027,8.911-.727,17.155-3.728,25.214-7.381,5.281,1.3,9.5-.417,13.819-5.646-4.331.332-7.846.081-11.068.95-7.844,2.116-16.966.909-22.86,8.367-1.814.509-3.871.231-5.377,1.692-.985-2.173-1.619-1.274-2.253-.378-.455.644-.909,1.285-1.491.8C-5956.667,445.543-5965.988,450.233-5975.752,453.406Zm-151.5,26.076c.134.294.212.764.437.833s.579-.229.88-.373c-.145-.293-.232-.764-.45-.84a.229.229,0,0,0-.076-.012C-6126.682,479.091-6127,479.353-6127.251,479.482Zm181.358-163.51c4.933,1.526,9.473,1.1,13.731,2.591a3.475,3.475,0,0,0,4.894-3.041c.331-2.386-1.41-2.231-2.647-2.076a3.729,3.729,0,0,1-.983.06,18.61,18.61,0,0,0-4.142-.467A23.525,23.525,0,0,0-5945.894,315.973Zm-317.6,179.478c2.035-.117,3.811-.085,3.839-2.761.122-.457.494-1.11.324-1.328-.61-.762-1.157-.245-1.617.311-3.457-.561-6.775-2.125-10.455-1.494,7.91-1.79,15.75-4.114,23.668-2.1-3.309,13.949-15.655,8.25-24.081,11.305C-6269.946,496.1-6266.714,495.636-6263.5,495.451Zm-36.651-68.763c-.09-2.386,2.251-3.17,4.424-3.5a7.976,7.976,0,0,1,1.481-.033,4.077,4.077,0,0,0,2.889-.618c-.133,1.143.2,1.853,1.434,1.181.559-.3,1.382-1.135,1.273-1.472-.237-.761-1.116-.715-1.85-.416,1.11-.512,2.229-2.225,1.749-2.446-3.964-1.859-.158-3.929-.3-5.819-.254-3.469,1.442-3.093,3.148-2.715a3.7,3.7,0,0,0,2.388.054,5.014,5.014,0,0,1,1.086-.248c2.574-.776,4.951-3.8,7.768-1.754a56.844,56.844,0,0,1,10.306,9.209c1.339,1.608-.407,4.663-2.3,5.624-3.423,1.742-6.524,4.511-10.782,4.3a81.454,81.454,0,0,0-17.891.944,11.328,11.328,0,0,1-1.9.2C-6298.7,429.168-6300.069,428.682-6300.147,426.688Zm51.953-2.056c-1.462-.365-2.484-1.02-2.535-2.463-.062-1.768,1.435-1.853,2.744-2.025q6.076-.783,12.146-1.606c2.208.283,2.972,1.752,3.058,3.762a19.535,19.535,0,0,1-10.279,3A20.853,20.853,0,0,1-6248.194,424.632Zm4.127-22.06a9.817,9.817,0,0,1,8.249-2.886,3.218,3.218,0,0,1,1.686,2.408,8.2,8.2,0,0,1-4.542,1.257A28.112,28.112,0,0,1-6244.067,402.572Zm19.16-11.715c2.144.8,6.4.7,8.785-2.027,2.626-3.007,3.929.062,5.15,1.274,1.9,1.877-1.071,2.147-1.575,3.29q-10.018.79-20.022,1.561C-6230.959,391.885-6229.867,389.017-6224.907,390.857Z" transform="translate(6300.164 -303.719)" fill="#fcb5c3"/>
        <path id="Claro-2" data-name="Claro" d="M-6313.869,432.664a3.153,3.153,0,0,1,3.531-1.825c.232.011.456.022.671.019,8.55-.166,15.58-4.775,23.148-7.772,5.877-2.314,11.906-2.772,18.156-2.381,4.849.3,9.407-1.4,13.946-3.1,2.231-.833,5.142-3.434,6.984.8-7.206,1.183-13.952,4.783-21.315,4.74-9.36-.049-17.533,4.718-26.586,5.706a2.371,2.371,0,0,0-1.962,2.4c-4.26.215-8.455,1.788-12.944,1.788A16.7,16.7,0,0,1-6313.869,432.664Zm112.954-27.98c4.531-.282,9.056-1.325,13.59-.022-3.016.029-6.025.817-9.04.817A12.249,12.249,0,0,1-6200.916,404.684Zm14.34-4.766c-.914-.061-.488-1.161-.126-1.815,3.8-2.5,8.266-2.423,12.5-3.246-2.426,4.159-6.21,5.128-10.333,5.128C-6185.209,399.985-6185.89,399.96-6186.576,399.918Zm-21.528-6.037c.19-3.1,1.935-4.293,4.683-4.352,1.887-.046,3.918.07,3.86,3.36-.412,2.458-2.278,4.061-5.215,4.257-.163.011-.321.016-.474.016C-6207.126,397.162-6208.252,396.3-6208.1,393.882Zm-64.489-9.118c6.545-2.59,13.588.115,19.268-4.29.048-.493-.628-.384-1.317-.276-.909.14-1.839.284-1.15-.952,2.107-3.8.2-3.716-2.771-4.156-3.924-.574-7.4.8-11.022,1.522-5.942,1.188-11.8,5.167-17.794.193-5.552,4.024-6.89-3.646-10.987-3.681,7.688-3.04,16.146-2.665,23.357-7-3.415.608-6.835,1.222-10.265,1.812-3.5.606-7,1.081-10.366-.662-.04-1.41,1.759-1.6,2.419-2.85a32.572,32.572,0,0,0-8.9,1.131,29.35,29.35,0,0,1-9.2,1.085c-2.139-.2-4.866.581-3.924-3.459.289-1.263-.765-3.045-2.887-1.512-1.505,1.1-2.56.408-2.778-1.233-.229-1.657,1.061-2.389,2.427-2.52,4.424-.429,8.871-.708,13.193-1.041-4.939-2.75-9.7.673-14.624.678-2.044,0-5.312,1.258-5.373-1.856-.03-1.817,2.751-2.679,5.448-3.262,5.583-1.214,10.914-.4,15.549-4.7,4.137.094,13.85-1.544,23.235-3.182,9.476-1.657,18.619-3.311,21.354-3.18,6.009.287-11.379,3.574-17.2,5-5.777,1.413-11.863,1.7-17.456,4.912a5.182,5.182,0,0,0,2.155.284c1.208-.008,2.408-.016,3.225,1.244-.293,1.807-3.185,1.064-3.268,3.48,1.689,1.486,3.491.319,5.417-.035,4.3-.78,8.624-2.584,12.912.659,2.391,1.813,5.428.126,7.31-1.04,6.244-3.86,13.569-1.74,19.941-4.316a1.256,1.256,0,0,1,1.092.094c6.84,7.187,13.553,1.12,19.958-.6,14.978-4.008,29.737-8.81,44.588-13.252.477-.14,1.052.1,1.769.753-22.174,8.443-44.963,15.057-67.548,22.585,3.949,2.378,8.624-.15,12.155,2.812.1.085.507.038.536-.043,2.282-5.49,6.391-4.952,10.524-4.415,3.122.407,6.257.812,8.635-1.368,1.6-1.472,3.858-1.6,6.206-.1,2.521,1.6,3.5,0,4.584-1.6.78-1.152,1.619-2.3,3.132-2.268-1.094,3.649-.236,4.295,3.526,2.963,2.966-1.057,5.682-3.5,9.524-2.333,2.573.783,4.587,1.426,5.18,4.255-.81.226-1.624.459-2.438.689.111.142.2.368.336.4a1.747,1.747,0,0,0,2.175-1.019,18.193,18.193,0,0,0,6.4-.9c2.482-.657,4.987-1.313,7.762-.71-7.4,2.638-14.762,5.429-22.251,7.809-2.16.686-3.617.866-3.828,3.676-.26,3.36-3.563,3.306-5.986,3.8-2,.421-4.228.123-5.641,1.978-.761.992-3.541.407-2.335,2.9.858,1.762,2.539,1.56,3.939,1.179,5.408-1.445,10.758-3.091,16.146-4.611,4.065-1.152,8.155-2.234,12.625-2.107-7.815,2.675-15.63,5.336-23.427,8.04-1.408.488-3.847.793-.766,2.636-2.357,1.587-4.885,1.531-7.458,1.477-.927-.021-1.86-.04-2.793.018-7.692.463-15.441.092-23.1,1.486a27.2,27.2,0,0,1-7.815-.094,30.011,30.011,0,0,0-7.3-.19c-4.415.587-8.9.218-13.258,1.847a9.212,9.212,0,0,1-3.239.6C-6267.48,387.944-6269.972,386.915-6272.592,384.764Zm110.9-.171c9.281-3.013,17.944-6.512,26.952-8.475a82.922,82.922,0,0,0,13.9-4.533c6.28-2.6,12.917-4.179,19.036-7.3,7.306-3.748,15.092-6.56,22.752-9.585,8.52-3.367,17.14-6.483,25.7-9.765,4.255-1.64,9.042-.249,13.179-2.453,3.579-.753,3.247,1.23,2.454,3.529-.322.324-.65.643-.968.97-.6-1.392-1.769-1.2-2.83-.84-10.874,3.641-21.944,6.708-32.481,11.289a20.253,20.253,0,0,1-6.884,2.947c-4.256,1.47-8.508,2.943-13.984,4.834,2.265.2,3.281.3,4.3.384-18.6,10.3-51.228,20.2-65.272,20.2C-6158.584,385.788-6160.611,385.413-6161.7,384.593Zm-35.019-2.322c-.455.118-.887.239-1.333.359C-6197.792,381.807-6197.407,381.475-6196.714,382.271Zm5.461-12.885c-.22-.069-.3-.539-.437-.833.285-.147.646-.458.868-.38s.308.549.451.839c-.27.128-.583.386-.8.386A.228.228,0,0,1-6191.253,369.386Zm-151.078-9.659c-1.287-1.555-2.673-1.437-4.223-1.321a7.391,7.391,0,0,1-3.78-.432c4.086-.609,7.52-2.12,9.933-1.147,1.783.721,3.339,3.019,5.711,3.655a107.37,107.37,0,0,0-16.319,1.439C-6348.609,359.983-6345.458,360.86-6342.332,359.727Zm7.9.817s.058-.064.061-.065c.314.073.628.155.939.234C-6333.762,360.656-6334.1,360.6-6334.432,360.544Zm-.258-.061c.105,0,.21,0,.316,0l-.061.065Q-6334.564,360.517-6334.69,360.483Zm-11.5-10.357c.721-1.352-1.656-3.2-3.863-4.08-4.794-1.9-4.868-4.185-.662-8.065,1.954,1.837,3.632,2.054,6.417.836a12.9,12.9,0,0,1,8.984-.145c3.931,1.544,2.507,4.944-.086,8.289,5.8-.442,10.6-.719,15.386-1.212,2.51-.254,4,.418,4.091,3.132-9.189,1.834-18.318,4.021-27.743,4.271-.622.019-1.355.142-1.973.142C-6346.853,353.294-6347.614,352.817-6346.192,350.126Zm35.919-2.043c-.441.077-.9.144-1.348.211C-6311.292,347.485-6310.861,347.284-6310.273,348.083Zm279.7-7.706c6.7-2.022,13.276-4.448,19.9-6.724.582.486,1.037-.156,1.491-.8.635-.9,1.268-1.794,2.252.378.088.679.177,1.351.272,2.019-8.346,4.6-17.545,6.7-26.658,9.029C-6033.606,342.121-6032.875,341.07-6030.57,340.377Zm-285.677-19.617c.26-1.829,7.926-5.332,9.394-4.113,1.989,1.632-.446,2.809-.762,4.23-1.327-.447-2.657-.892-4.1-1.376-1.518,1.5,1.719,4.411-1.464,5.45C-6312.034,321.965-6316.59,323.152-6316.247,320.76Zm15.968-13.156c.675-.276,1.375-.844,2-.769a6.206,6.206,0,0,0,1.945-.233c1.49-.329,2.97-.657,3.378,1.3.484,2.324-2.134,3.126-4.267,3.461C-6297.31,309.358-6298.062,307.889-6300.279,307.6Zm36.585-.11c0-.71-.051-1.745.935-1.445,1.179.364,1.464,1.537,1.223,2.753C-6262.254,308.364-6262.974,307.924-6263.694,307.494Zm52.288-5.1c-3.33-.534-6.863-.475-9.922-2.285,2.265-2.011,4.727-1.53,7.191-1.049,1.858.362,3.718.724,5.494.019.314,2.01-.978,3.343-2.4,3.344A2.3,2.3,0,0,1-6211.406,302.4Zm-87.784-1.529a2.6,2.6,0,0,1,2.733-2.812c2.552.041,5.105.034,8.174.026,1.293,0,2.68-.006,4.2,0-4.628,2.483-8.419,3.061-12.1,3.836a8.861,8.861,0,0,1-1.772.337C-6298.627,302.248-6299.171,301.956-6299.19,300.867Zm74.422-4.37.019,0c-1.2-2.866-3.973-5.574-.89-8.88-.182,1.936.394,3.247,2.611,3.236.51.483,1.018.966,1.531,1.445-1.582,1.018-4.209,1.226-3.25,4.2,1.064-.164,2.523-.743,3.014.317.637,1.392-1.684,1.756-1.8,3.118C-6225.473,299.334-6224.205,297.581-6224.768,296.5Zm-67.8-4.048c-2.016-.329-4.006-.852-6-1.284a3.226,3.226,0,0,0-1.689-2.408c-.44-2.628,2.043-3.246,3.25-4.73q10.011-.782,20.022-1.561a16.469,16.469,0,0,1-4.544,8.545c-1.421,1.386-3.839,1.845-6.4,1.845A29.785,29.785,0,0,1-6292.565,292.449Zm69.548-1.6c6.548-2.236,13.016-4.63,18.143-9.556l.113.1-.115-.1c.8-1.523-1.381-4.619,2.253-4.59,3.126.022,1.8,2.71,2.181,4.266.419,1.77.194,3.8,3.69,3.649-3.609,2-6.346,3.553-9.645,3.579q-7.54,2.048-15.09,4.1C-6222,291.819-6222.507,291.336-6223.017,290.853Zm16.622-2.654c.763-1.922,4.3-3.234,2.676-5.679C-6202.1,284.963-6205.635,286.275-6206.4,288.2Zm-21.983-2.971c-1.326-3.542-5.01-2.85-7.6-4.234-.16-2.649,2.311-3.636,3.563-5.365,1.812-2.507,4.25-3.185,4.8.671.537,3.8,6.185,6.732,1.992,11.3C-6225.551,285.665-6225.891,284.2-6228.379,285.228Zm-8.67-13.655c1.8-.713.759-2.464-.938-2.285-2.866.308-2.222-1.522-2.453-3.1a2.619,2.619,0,0,1,2.978-3.145,8.521,8.521,0,0,0,2.314-.1c2.263-.292,4.638-.585,4.806,3.636.025.678.531.544,1.193.407a2.032,2.032,0,0,1,2.495.855c-7.184,1.006-7.818,9.8-16,12.531C-6239.9,276.757-6240.947,273.118-6237.049,271.572Zm16.914,1.941c-1.206-.584-1.212-1.726-.837-2.895.563-1.761,1.64-2.161,3.431-1.718,3,.74,5.762-.836,8.757-.93-2.561,1.689-6,1.766-6.786,5.764-.091.458-.582.632-1.237.633A8.906,8.906,0,0,1-6220.135,273.513Zm-3.317-7.839c1.56-2.493,3.96-1.99,6.022-2.354-1.5,1.222-3.019,2.4-5.228,2.4A6.556,6.556,0,0,1-6223.453,265.674Zm6.156-2.462,0,0c.042,0,.082-.008.123-.013l-.043.081,0,0c-.07.014-.142.027-.214.04Zm5.477-2.469a8.984,8.984,0,0,1-5.359,2.451C-6216.121,261.2-6214.365,260.8-6211.819,260.743Z" transform="translate(6364.602 -192.79)" fill="#ffd9e1"/>
      </g>
      <g id="Mancha-3" data-name="Mancha" transform="matrix(-0.087, -0.996, 0.996, -0.087, 284.983, 310.164)" opacity="0.6">
        <path id="Medio-3" data-name="Medio" d="M67.29.766a2.374,2.374,0,0,0,1.964,2.4c9.054.99,17.23,5.757,26.587,5.708,7.36-.046,14.109,3.558,21.316,4.74.681-3.934-3-4.019-4.829-4.3-9.852-1.494-18.937-5.45-28.388-8.211A28.987,28.987,0,0,0,75.739,0,54.963,54.963,0,0,0,67.29.766ZM177.9,33.922c-.363-.655-.787-1.753.128-1.815,4.889-.3,9.547.223,12.371,5.061,2.682,1.665,5.77,2.746,8,5.536-4.781,1.67-7.589,7.406-13.65,5.778-.187,3.572-2.824,3.319-5.079,2.9a47.414,47.414,0,0,1-7.472-2.326c-1.646-.607-2.894.449-4.325.7-.691.794-1.08.463-1.331-.361-.685-.06-1.355-.108-2.04-.164-3.08,1.844-.637,2.146.766,2.637,7.8,2.7,15.615,5.362,23.429,8.039-4.467.125-8.559-.958-12.627-2.106-5.387-1.521-10.734-3.165-16.146-4.612-1.4-.378-3.082-.58-3.937,1.181-1.208,2.49,1.575,1.907,2.334,2.9,1.412,1.853,3.64,1.557,5.64,1.978,2.425.5,5.729.443,5.988,3.8.213,2.813,1.671,2.99,3.83,3.676,7.487,2.38,14.847,5.17,22.248,7.809-2.775.6-5.279-.054-7.76-.71a18.192,18.192,0,0,0-6.4-.9l-.07.077c-.6,2.821-2.61,3.466-5.185,4.249-3.845,1.167-6.559-1.276-9.523-2.332-3.765-1.331-4.622-.688-3.526,2.962-1.515.036-2.354-1.116-3.135-2.267-1.088-1.6-2.062-3.208-4.582-1.6-2.345,1.494-4.606,1.369-6.206-.1-2.38-2.18-5.514-1.774-8.633-1.368-4.133.539-8.243,1.077-10.526-4.413-.033-.081-.432-.128-.538-.044-3.53,2.962-8.2.432-12.151,2.811,22.582,7.531,45.37,14.142,67.545,22.584-.713.658-1.292.9-1.766.753-14.85-4.44-29.612-9.243-44.59-13.25-6.4-1.719-13.119-7.786-19.956-.6a1.239,1.239,0,0,1-1.094.095c-6.371-2.574-13.7-.455-19.938-4.315-1.888-1.164-4.922-2.854-7.311-1.04-4.29,3.245-8.611,1.439-12.914.659-1.926-.356-3.727-1.523-5.415-.036.081,2.416,2.974,1.674,3.265,3.48-.817,1.259-2.019,1.251-3.225,1.243a5.169,5.169,0,0,0-2.154.283c5.591,3.21,11.682,3.5,17.458,4.916L54.319,83.946c-.586.8-1.017.6-1.347-.21-1.438-.194-2.866-.392-4.305-.588-.087,2.716-1.581,3.388-4.09,3.134-4.785-.495-9.585-.772-15.386-1.213,2.595,3.346,4.018,6.748.087,8.288a12.9,12.9,0,0,1-8.984-.145c-2.786-1.217-4.462-1-6.416.836,2.309,4.233,6.573,5.68,10.567,7.621,7.126,3.46,13.77,9.24,22.362,3.17,1.895-1.333,3.27,1.039,4.611,2.239,3.185,1.039-.054,3.945,1.466,5.449,1.447-.484,2.775-.928,4.1-1.376,2.193.474,4.165-.237,6.136-.949a13.47,13.47,0,0,1,4.843-1.1c1.99,3.265,10.491,4.62,10.491,4.62s5.6,3.676,7.238,8.178S98.9,128.251,98.9,128.251c3.632,1.986,3.028,7.169,6.182,8.415,4.005,1.583,4.454,9.036,7.857,7.714,2.273-.885,10.027-6.2,21.548,1.64.576.262,1.149.525,1.717.781,2.485,1.028,2.827-.438,2.759-2.375a.04.04,0,0,0-.006-.016c-3.093-3.312-.292-6.031.9-8.9l-.038.022c.562-1.083-.7-2.837,1.235-3.43.74-.063,1.477-.123,2.206-.183,3.061-1.812,6.592-1.752,9.923-2.285,1.559-.247,3.1,1.138,2.764,3.316,3.168,3.643,8.382-.28,11.708,4.361.846-4.222.138-5.994-3.208-7.047-9.084-2.865-10.711-5.795-8.73-14.494.8-3.524,5.028-1.976,8.067-.147,7.016,4.212,13.1,10.973,14.95,12.569,2.521,2.172,5.9,2.059,9.213,1.945,1.024-.035,2.041-.07,3.025-.038,5.388-.925,8.046-.517,8.827,3.053-1.27,4.064-1.41,8.793-7.144,9.866-1.061.2-1.373,2.288.666,3.376,4.452,2.384,8.2,5.077,6.22,11.413-1.034,3.3,5.909,8.407,9.9,7.884a5.75,5.75,0,0,1,2.107.6c-1.678,4.772,3.69,4.925,5.164,7.732,2,3.785,5.156,6.96,7.158,10.749,3.076,5.819,6.828,11.176,10.287,16.735,1.472.911,2.911,1.844,2.622,3.934l.242.253c.757-.125,1.027.16.755.9l.275.329q1.157-.225.765.882l.251.307c1.5-.574,2.353.474,3.471,1.167,3.421,2.09,6.731,4.753,10.481,5.85,13.056,3.834,25.377,9.643,38.353,13.653,9.349,4.108,19.5,3.924,29.314,4.849,7.921.745,15.933.876,23.905,1.679,7.074.71,14.223,2.86,21.383.4,3.25-.985,5.906-1,5.923,3.486,22.422-7.684,36.082-25.093,47.558-44.286,4.644-7.757,9.794-15.658,11.863-24.754,2.514-11.027,3.091-21.893.2-33.253-2.234-8.758-4.449-17.111-9.358-24.84-5.272-8.285-13.489-11.495-21.959-14.686C386.015,92.029,370.9,90.127,356.535,85.5c-17.853-5.749-35.911-10.744-54.1-15.3a88.736,88.736,0,0,1-21.811-9.013c-12.818-7.2-26.739-11.865-39.93-18.213-8.059-3.883-17.5-2.315-25.691-5.909-6.5-2.849-13.637-2.233-20.4-3.782-6.05-1.382-11.292-4.737-17.32-5.918-4.529,1.3-9.057.262-13.587-.024C168.214,29.981,172.523,33.1,177.9,33.922ZM324.4,89.55c-4.139-2.206-8.924-.813-13.177-2.452-8.557-3.286-17.179-6.4-25.7-9.767-7.658-3.025-15.448-5.838-22.751-9.58-6.121-3.129-12.755-4.706-19.037-7.31a82.812,82.812,0,0,0-13.9-4.532c-9.008-1.964-17.671-5.463-26.953-8.475,6.654-5.036,48.9,6.7,71.116,19,3.339,1.531,6.842,2.769,9.691,5.219a20.263,20.263,0,0,1,6.883,2.947c6.607.177,12.563,3.05,18.586,5.156,5.534,1.942,11.958,1.072,16.722,5.291.318.326.646.645.966.968,1.48.583,2.952,1.156,4.426,1.733,9.122,2.324,18.324,4.427,26.662,9.027,8.911.727,17.155,3.728,25.214,7.381,5.281-1.3,9.5.417,13.819,5.646-4.331-.332-7.846-.081-11.068-.95-7.844-2.116-16.966-.909-22.86-8.367-1.814-.509-3.871-.231-5.377-1.692-.985,2.173-1.619,1.274-2.253.378-.455-.644-.909-1.285-1.491-.8C343.482,97.413,334.161,92.723,324.4,89.55ZM172.9,63.473c.134-.294.212-.764.437-.833s.579.229.88.373c-.145.293-.232.764-.45.84a.229.229,0,0,1-.076.012C173.468,63.865,173.153,63.6,172.9,63.473Zm181.358,163.51c4.933-1.526,9.473-1.1,13.731-2.591a3.475,3.475,0,0,1,4.894,3.041c.331,2.386-1.41,2.231-2.647,2.076a3.729,3.729,0,0,0-.983-.06,18.61,18.61,0,0,1-4.142.467A23.525,23.525,0,0,1,354.256,226.983ZM36.653,47.505c2.035.117,3.811.085,3.839,2.761.122.457.494,1.11.324,1.328-.61.762-1.157.245-1.617-.311-3.457.561-6.775,2.125-10.455,1.494,7.91,1.79,15.75,4.114,23.668,2.1C49.1,40.932,36.758,46.631,28.332,43.576,30.2,46.852,33.436,47.32,36.653,47.505ZM0,116.268c-.09,2.386,2.251,3.17,4.424,3.5a7.976,7.976,0,0,0,1.481.033,4.077,4.077,0,0,1,2.889.618c-.133-1.143.2-1.853,1.434-1.181.559.3,1.382,1.135,1.273,1.472-.237.761-1.116.715-1.85.416,1.11.512,2.229,2.225,1.749,2.446-3.964,1.859-.158,3.929-.3,5.819-.254,3.469,1.442,3.093,3.148,2.715a3.7,3.7,0,0,1,2.388-.054,5.014,5.014,0,0,0,1.086.248c2.574.776,4.951,3.8,7.768,1.754A56.844,56.844,0,0,0,35.8,124.849c1.339-1.608-.407-4.663-2.3-5.624-3.423-1.742-6.524-4.511-10.782-4.3a81.454,81.454,0,0,1-17.891-.944,11.328,11.328,0,0,0-1.9-.2C1.454,113.787.08,114.274,0,116.268Zm51.953,2.056c-1.462.365-2.484,1.02-2.535,2.463-.062,1.768,1.435,1.853,2.744,2.025q6.076.783,12.146,1.606c2.208-.283,2.972-1.752,3.058-3.762a19.535,19.535,0,0,0-10.279-3A20.853,20.853,0,0,0,51.956,118.323Zm4.127,22.06a9.817,9.817,0,0,0,8.249,2.886,3.218,3.218,0,0,0,1.686-2.408,8.2,8.2,0,0,0-4.542-1.257A28.112,28.112,0,0,0,56.083,140.384ZM75.243,152.1c2.144-.8,6.4-.7,8.785,2.027,2.626,3.007,3.929-.062,5.15-1.274,1.9-1.877-1.071-2.147-1.575-3.29q-10.018-.79-20.022-1.561C69.19,151.071,70.283,153.939,75.243,152.1Z" transform="translate(0 1.021)" fill="#fcb5c3"/>
        <path id="Claro-3" data-name="Claro" d="M39.9.383a3.153,3.153,0,0,0,3.531,1.825c.232-.011.456-.022.671-.019,8.55.166,15.58,4.775,23.148,7.772,5.877,2.314,11.906,2.772,18.156,2.381,4.849-.3,9.407,1.4,13.946,3.1,2.231.833,5.142,3.434,6.984-.8-7.206-1.183-13.952-4.783-21.315-4.74-9.36.049-17.533-4.718-26.586-5.706a2.371,2.371,0,0,1-1.962-2.4C52.21,1.573,48.016,0,43.526,0A16.7,16.7,0,0,0,39.9.383Zm112.954,27.98c4.531.282,9.056,1.325,13.59.022-3.016-.029-6.025-.817-9.04-.817A12.249,12.249,0,0,0,152.852,28.363Zm14.34,4.766c-.914.061-.488,1.161-.126,1.815,3.8,2.5,8.266,2.423,12.5,3.246-2.426-4.159-6.21-5.128-10.333-5.128C168.558,33.062,167.877,33.087,167.191,33.129Zm-21.528,6.037c.19,3.1,1.935,4.293,4.683,4.352,1.887.046,3.918-.07,3.86-3.36-.412-2.458-2.278-4.061-5.215-4.257-.163-.011-.321-.016-.474-.016C146.641,35.885,145.515,36.749,145.664,39.165ZM81.175,48.283c6.545,2.59,13.588-.115,19.268,4.29.048.493-.628.384-1.317.276-.909-.14-1.839-.284-1.15.952,2.107,3.8.2,3.716-2.771,4.156-3.924.574-7.4-.8-11.022-1.522-5.942-1.188-11.8-5.167-17.794-.193-5.552-4.024-6.89,3.646-10.987,3.681,7.688,3.04,16.146,2.665,23.357,7-3.415-.608-6.835-1.222-10.265-1.812-3.5-.606-7-1.081-10.366.662-.04,1.41,1.759,1.6,2.419,2.85a32.572,32.572,0,0,1-8.9-1.131,29.35,29.35,0,0,0-9.2-1.085c-2.139.2-4.866-.581-3.924,3.459.289,1.263-.765,3.045-2.887,1.512-1.505-1.1-2.56-.408-2.778,1.233-.229,1.657,1.061,2.389,2.427,2.52,4.424.429,8.871.708,13.193,1.041-4.939,2.75-9.7-.673-14.624-.678-2.044,0-5.312-1.258-5.373,1.856-.03,1.817,2.751,2.679,5.448,3.262,5.583,1.214,10.914.4,15.549,4.7,4.137-.094,13.85,1.544,23.235,3.182,9.476,1.657,18.619,3.311,21.354,3.18,6.009-.287-11.379-3.574-17.2-5-5.777-1.413-11.863-1.7-17.456-4.912a5.182,5.182,0,0,1,2.155-.284c1.208.008,2.408.016,3.225-1.244-.293-1.807-3.185-1.064-3.268-3.48,1.689-1.486,3.491-.319,5.417.035,4.3.78,8.624,2.584,12.912-.659,2.391-1.813,5.428-.126,7.31,1.04,6.244,3.86,13.569,1.74,19.941,4.316A1.256,1.256,0,0,0,108.2,81.4c6.84-7.187,13.553-1.12,19.958.6C143.137,86,157.9,90.8,172.748,95.246c.477.14,1.052-.1,1.769-.753-22.174-8.443-44.963-15.057-67.548-22.585,3.949-2.378,8.624.15,12.155-2.812.1-.085.507-.038.536.043,2.282,5.49,6.391,4.952,10.524,4.415,3.122-.407,6.257-.812,8.635,1.368,1.6,1.472,3.858,1.6,6.206.1,2.521-1.6,3.5,0,4.584,1.6.78,1.152,1.619,2.3,3.132,2.268-1.094-3.649-.236-4.295,3.526-2.963,2.966,1.057,5.682,3.5,9.524,2.333,2.573-.783,4.587-1.426,5.18-4.255-.81-.226-1.624-.459-2.438-.689.111-.142.2-.368.336-.4a1.747,1.747,0,0,1,2.175,1.019,18.193,18.193,0,0,1,6.4.9c2.482.657,4.987,1.313,7.762.71-7.4-2.638-14.762-5.429-22.251-7.809-2.16-.686-3.617-.866-3.828-3.676-.26-3.36-3.563-3.306-5.986-3.8-2-.421-4.228-.123-5.641-1.978-.761-.992-3.541-.407-2.335-2.9.858-1.762,2.539-1.56,3.939-1.179,5.408,1.445,10.758,3.091,16.146,4.611,4.065,1.152,8.155,2.234,12.625,2.107-7.815-2.675-15.63-5.336-23.427-8.04-1.408-.488-3.847-.793-.766-2.636-2.357-1.587-4.885-1.531-7.458-1.477-.927.021-1.86.04-2.793-.018-7.692-.463-15.441-.092-23.1-1.486a27.2,27.2,0,0,0-7.815.094,30.011,30.011,0,0,1-7.3.19c-4.415-.587-8.9-.218-13.258-1.847a9.212,9.212,0,0,0-3.239-.6C86.287,45.1,83.8,46.132,81.175,48.283Zm110.9.171c9.281,3.013,17.944,6.512,26.952,8.475a82.922,82.922,0,0,1,13.9,4.533c6.28,2.6,12.917,4.179,19.036,7.3,7.306,3.748,15.092,6.56,22.752,9.585,8.52,3.367,17.14,6.483,25.7,9.765,4.255,1.64,9.042.249,13.179,2.453,3.579.753,3.247-1.23,2.454-3.529-.322-.324-.65-.643-.968-.97-.6,1.392-1.769,1.2-2.83.84C301.367,83.27,290.3,80.2,279.759,75.623a20.253,20.253,0,0,0-6.884-2.947c-4.256-1.47-8.508-2.943-13.984-4.834,2.265-.2,3.281-.3,4.3-.384-18.6-10.3-51.228-20.2-65.272-20.2C195.183,47.259,193.156,47.634,192.071,48.454Zm-35.019,2.322c-.455-.118-.887-.239-1.333-.359C155.975,51.24,156.36,51.572,157.053,50.776Zm5.461,12.885c-.22.069-.3.539-.437.833.285.147.646.458.868.38s.308-.549.451-.839c-.27-.128-.583-.386-.8-.386A.228.228,0,0,0,162.514,63.661ZM11.436,73.32c-1.287,1.555-2.673,1.437-4.223,1.321a7.391,7.391,0,0,0-3.78.432c4.086.609,7.52,2.12,9.933,1.147,1.783-.721,3.339-3.019,5.711-3.655A107.37,107.37,0,0,1,2.758,71.125C5.158,73.064,8.31,72.187,11.436,73.32Zm7.9-.817s.058.064.061.065c.314-.073.628-.155.939-.234C20,72.391,19.67,72.446,19.335,72.5Zm-.258.061c.105,0,.21,0,.316,0l-.061-.065Q19.2,72.53,19.077,72.564ZM7.575,82.921c.721,1.352-1.656,3.2-3.863,4.08-4.794,1.9-4.868,4.185-.662,8.065C5,93.228,6.682,93.012,9.466,94.23a12.9,12.9,0,0,0,8.984.145c3.931-1.544,2.507-4.944-.086-8.289,5.8.442,10.6.719,15.386,1.212,2.51.254,4-.418,4.091-3.132C28.651,82.332,19.522,80.146,10.1,79.9c-.622-.019-1.355-.142-1.973-.142C6.914,79.753,6.153,80.23,7.575,82.921Zm35.919,2.043c-.441-.077-.9-.144-1.348-.211C42.475,85.562,42.906,85.763,43.494,84.964ZM323.2,92.67c6.7,2.022,13.276,4.448,19.9,6.724.582-.486,1.037.156,1.491.8.635.9,1.268,1.794,2.252-.378.088-.679.177-1.351.272-2.019-8.346-4.6-17.545-6.7-26.658-9.029C320.161,90.925,320.893,91.976,323.2,92.67ZM37.52,112.287c.26,1.829,7.926,5.332,9.394,4.113,1.989-1.632-.446-2.809-.762-4.23-1.327.447-2.657.892-4.1,1.376-1.518-1.5,1.719-4.411-1.464-5.45C41.733,111.081,37.177,109.895,37.52,112.287Zm15.968,13.156c.675.276,1.375.844,2,.769a6.206,6.206,0,0,1,1.945.233c1.49.329,2.97.657,3.378-1.3.484-2.324-2.134-3.126-4.267-3.461C56.458,123.689,55.7,125.158,53.488,125.443Zm36.585.11c0,.71-.051,1.745.935,1.445,1.179-.364,1.464-1.537,1.223-2.753C91.513,124.683,90.793,125.123,90.073,125.553Zm52.288,5.1c-3.33.534-6.863.475-9.922,2.285,2.265,2.011,4.727,1.53,7.191,1.049,1.858-.362,3.718-.724,5.494-.019.314-2.01-.978-3.343-2.4-3.344A2.3,2.3,0,0,0,142.361,130.651ZM54.577,132.18a2.6,2.6,0,0,0,2.733,2.812c2.552-.041,5.105-.034,8.174-.026,1.293,0,2.68.006,4.2,0-4.628-2.483-8.419-3.061-12.1-3.836a8.861,8.861,0,0,0-1.772-.337C55.14,130.8,54.6,131.091,54.577,132.18ZM129,136.55l.019,0c-1.2,2.866-3.973,5.574-.89,8.88-.182-1.936.394-3.247,2.611-3.236.51-.483,1.018-.966,1.531-1.445-1.582-1.018-4.209-1.226-3.25-4.2,1.064.164,2.523.743,3.014-.317.637-1.392-1.684-1.756-1.8-3.118C128.294,133.713,129.562,135.466,129,136.55ZM61.2,140.6c-2.016.329-4.006.852-6,1.284a3.226,3.226,0,0,1-1.689,2.408c-.44,2.628,2.043,3.246,3.25,4.73q10.011.782,20.022,1.561a16.469,16.469,0,0,0-4.544-8.545c-1.421-1.386-3.839-1.845-6.4-1.845A29.785,29.785,0,0,0,61.2,140.6Zm69.548,1.6c6.548,2.236,13.016,4.63,18.143,9.556l.113-.1-.115.1c.8,1.523-1.381,4.619,2.253,4.59,3.126-.022,1.8-2.71,2.181-4.266.419-1.77.194-3.8,3.69-3.649-3.609-2-6.346-3.553-9.645-3.579q-7.54-2.048-15.09-4.1C131.768,141.228,131.26,141.711,130.75,142.194Zm16.622,2.654c.763,1.922,4.3,3.234,2.676,5.679C151.668,148.084,148.132,146.772,147.372,144.848Zm-21.983,2.971c-1.326,3.542-5.01,2.85-7.6,4.234-.16,2.649,2.311,3.636,3.563,5.365,1.812,2.507,4.25,3.185,4.8-.671.537-3.8,6.185-6.732,1.992-11.3C128.216,147.382,127.876,148.847,125.388,147.819Zm-8.67,13.655c1.8.713.759,2.464-.938,2.285-2.866-.308-2.222,1.522-2.453,3.1a2.619,2.619,0,0,0,2.978,3.145,8.521,8.521,0,0,1,2.314.1c2.263.292,4.638.585,4.806-3.636.025-.678.531-.544,1.193-.407a2.032,2.032,0,0,0,2.495-.855c-7.184-1.006-7.818-9.8-16-12.531C113.872,156.29,112.82,159.929,116.718,161.475Zm16.914-1.941c-1.206.584-1.212,1.726-.837,2.895.563,1.761,1.64,2.161,3.431,1.718,3-.74,5.762.836,8.757.93-2.561-1.689-6-1.766-6.786-5.764-.091-.458-.582-.632-1.237-.633A8.906,8.906,0,0,0,133.632,159.534Zm-3.317,7.839c1.56,2.493,3.96,1.99,6.022,2.354-1.5-1.222-3.019-2.4-5.228-2.4A6.556,6.556,0,0,0,130.314,167.373Zm6.156,2.462,0,0c.042,0,.082.008.123.013l-.043-.081,0,0c-.07-.014-.142-.027-.214-.04Zm5.477,2.469a8.984,8.984,0,0,0-5.359-2.451C137.646,171.849,139.4,172.247,141.948,172.3Z" transform="translate(10.82 0)" fill="#ffd9e1"/>
      </g>
      <g id="Mancha-4" data-name="Mancha" transform="translate(-12.108 804.402) rotate(-97)" opacity="0.6">
        <path id="Medio-4" data-name="Medio" d="M67.29.766a2.374,2.374,0,0,0,1.964,2.4c9.054.99,17.23,5.757,26.587,5.708,7.36-.046,14.109,3.558,21.316,4.74.681-3.934-3-4.019-4.829-4.3-9.852-1.494-18.937-5.45-28.388-8.211A28.987,28.987,0,0,0,75.739,0,54.963,54.963,0,0,0,67.29.766ZM177.9,33.922c-.363-.655-.787-1.753.128-1.815,4.889-.3,9.547.223,12.371,5.061,2.682,1.665,5.77,2.746,8,5.536-4.781,1.67-7.589,7.406-13.65,5.778-.187,3.572-2.824,3.319-5.079,2.9a47.414,47.414,0,0,1-7.472-2.326c-1.646-.607-2.894.449-4.325.7-.691.794-1.08.463-1.331-.361-.685-.06-1.355-.108-2.04-.164-3.08,1.844-.637,2.146.766,2.637,7.8,2.7,15.615,5.362,23.429,8.039-4.467.125-8.559-.958-12.627-2.106-5.387-1.521-10.734-3.165-16.146-4.612-1.4-.378-3.082-.58-3.937,1.181-1.208,2.49,1.575,1.907,2.334,2.9,1.412,1.853,3.64,1.557,5.64,1.978,2.425.5,5.729.443,5.988,3.8.213,2.813,1.671,2.99,3.83,3.676,7.487,2.38,14.847,5.17,22.248,7.809-2.775.6-5.279-.054-7.76-.71a18.192,18.192,0,0,0-6.4-.9l-.07.077c-.6,2.821-2.61,3.466-5.185,4.249-3.845,1.167-6.559-1.276-9.523-2.332-3.765-1.331-4.622-.688-3.526,2.962-1.515.036-2.354-1.116-3.135-2.267-1.088-1.6-2.062-3.208-4.582-1.6-2.345,1.494-4.606,1.369-6.206-.1-2.38-2.18-5.514-1.774-8.633-1.368-4.133.539-8.243,1.077-10.526-4.413-.033-.081-.432-.128-.538-.044-3.53,2.962-8.2.432-12.151,2.811,22.582,7.531,45.37,14.142,67.545,22.584-.713.658-1.292.9-1.766.753-14.85-4.44-29.612-9.243-44.59-13.25-6.4-1.719-13.119-7.786-19.956-.6a1.239,1.239,0,0,1-1.094.095c-6.371-2.574-13.7-.455-19.938-4.315-1.888-1.164-4.922-2.854-7.311-1.04-4.29,3.245-8.611,1.439-12.914.659-1.926-.356-3.727-1.523-5.415-.036.081,2.416,2.974,1.674,3.265,3.48-.817,1.259-2.019,1.251-3.225,1.243a5.169,5.169,0,0,0-2.154.283c5.591,3.21,11.682,3.5,17.458,4.916L54.319,83.946c-.586.8-1.017.6-1.347-.21-1.438-.194-2.866-.392-4.305-.588-.087,2.716-1.581,3.388-4.09,3.134-4.785-.495-9.585-.772-15.386-1.213,2.595,3.346,4.018,6.748.087,8.288a12.9,12.9,0,0,1-8.984-.145c-2.786-1.217-4.462-1-6.416.836,2.309,4.233,6.573,5.68,10.567,7.621,7.126,3.46,13.77,9.24,22.362,3.17,1.895-1.333,3.27,1.039,4.611,2.239,3.185,1.039-.054,3.945,1.466,5.449,1.447-.484,2.775-.928,4.1-1.376,2.193.474,4.165-.237,6.136-.949a13.47,13.47,0,0,1,4.843-1.1c1.99,3.265,10.491,4.62,10.491,4.62s5.6,3.676,7.238,8.178S98.9,128.251,98.9,128.251c3.632,1.986,3.028,7.169,6.182,8.415,4.005,1.583,4.454,9.036,7.857,7.714,2.273-.885,10.027-6.2,21.548,1.64.576.262,1.149.525,1.717.781,2.485,1.028,2.827-.438,2.759-2.375a.04.04,0,0,0-.006-.016c-3.093-3.312-.292-6.031.9-8.9l-.038.022c.562-1.083-.7-2.837,1.235-3.43.74-.063,1.477-.123,2.206-.183,3.061-1.812,6.592-1.752,9.923-2.285,1.559-.247,3.1,1.138,2.764,3.316,3.168,3.643,8.382-.28,11.708,4.361.846-4.222.138-5.994-3.208-7.047-9.084-2.865-10.711-5.795-8.73-14.494.8-3.524,5.028-1.976,8.067-.147,7.016,4.212,13.1,10.973,14.95,12.569,2.521,2.172,5.9,2.059,9.213,1.945,1.024-.035,2.041-.07,3.025-.038,5.388-.925,8.046-.517,8.827,3.053-1.27,4.064-1.41,8.793-7.144,9.866-1.061.2-1.373,2.288.666,3.376,4.452,2.384,8.2,5.077,6.22,11.413-1.034,3.3,5.909,8.407,9.9,7.884a5.75,5.75,0,0,1,2.107.6c-1.678,4.772,3.69,4.925,5.164,7.732,2,3.785,5.156,6.96,7.158,10.749,3.076,5.819,6.828,11.176,10.287,16.735,1.472.911,2.911,1.844,2.622,3.934l.242.253c.757-.125,1.027.16.755.9l.275.329q1.157-.225.765.882l.251.307c1.5-.574,2.353.474,3.471,1.167,3.421,2.09,6.731,4.753,10.481,5.85,13.056,3.834,25.377,9.643,38.353,13.653,9.349,4.108,19.5,3.924,29.314,4.849,7.921.745,15.933.876,23.905,1.679,7.074.71,14.223,2.86,21.383.4,3.25-.985,5.906-1,5.923,3.486,22.422-7.684,36.082-25.093,47.558-44.286,4.644-7.757,9.794-15.658,11.863-24.754,2.514-11.027,3.091-21.893.2-33.253-2.234-8.758-4.449-17.111-9.358-24.84-5.272-8.285-13.489-11.495-21.959-14.686C386.015,92.029,370.9,90.127,356.535,85.5c-17.853-5.749-35.911-10.744-54.1-15.3a88.736,88.736,0,0,1-21.811-9.013c-12.818-7.2-26.739-11.865-39.93-18.213-8.059-3.883-17.5-2.315-25.691-5.909-6.5-2.849-13.637-2.233-20.4-3.782-6.05-1.382-11.292-4.737-17.32-5.918-4.529,1.3-9.057.262-13.587-.024C168.214,29.981,172.523,33.1,177.9,33.922ZM324.4,89.55c-4.139-2.206-8.924-.813-13.177-2.452-8.557-3.286-17.179-6.4-25.7-9.767-7.658-3.025-15.448-5.838-22.751-9.58-6.121-3.129-12.755-4.706-19.037-7.31a82.812,82.812,0,0,0-13.9-4.532c-9.008-1.964-17.671-5.463-26.953-8.475,6.654-5.036,48.9,6.7,71.116,19,3.339,1.531,6.842,2.769,9.691,5.219a20.263,20.263,0,0,1,6.883,2.947c6.607.177,12.563,3.05,18.586,5.156,5.534,1.942,11.958,1.072,16.722,5.291.318.326.646.645.966.968,1.48.583,2.952,1.156,4.426,1.733,9.122,2.324,18.324,4.427,26.662,9.027,8.911.727,17.155,3.728,25.214,7.381,5.281-1.3,9.5.417,13.819,5.646-4.331-.332-7.846-.081-11.068-.95-7.844-2.116-16.966-.909-22.86-8.367-1.814-.509-3.871-.231-5.377-1.692-.985,2.173-1.619,1.274-2.253.378-.455-.644-.909-1.285-1.491-.8C343.482,97.413,334.161,92.723,324.4,89.55ZM172.9,63.473c.134-.294.212-.764.437-.833s.579.229.88.373c-.145.293-.232.764-.45.84a.229.229,0,0,1-.076.012C173.468,63.865,173.153,63.6,172.9,63.473Zm181.358,163.51c4.933-1.526,9.473-1.1,13.731-2.591a3.475,3.475,0,0,1,4.894,3.041c.331,2.386-1.41,2.231-2.647,2.076a3.729,3.729,0,0,0-.983-.06,18.61,18.61,0,0,1-4.142.467A23.525,23.525,0,0,1,354.256,226.983ZM36.653,47.505c2.035.117,3.811.085,3.839,2.761.122.457.494,1.11.324,1.328-.61.762-1.157.245-1.617-.311-3.457.561-6.775,2.125-10.455,1.494,7.91,1.79,15.75,4.114,23.668,2.1C49.1,40.932,36.758,46.631,28.332,43.576,30.2,46.852,33.436,47.32,36.653,47.505ZM0,116.268c-.09,2.386,2.251,3.17,4.424,3.5a7.976,7.976,0,0,0,1.481.033,4.077,4.077,0,0,1,2.889.618c-.133-1.143.2-1.853,1.434-1.181.559.3,1.382,1.135,1.273,1.472-.237.761-1.116.715-1.85.416,1.11.512,2.229,2.225,1.749,2.446-3.964,1.859-.158,3.929-.3,5.819-.254,3.469,1.442,3.093,3.148,2.715a3.7,3.7,0,0,1,2.388-.054,5.014,5.014,0,0,0,1.086.248c2.574.776,4.951,3.8,7.768,1.754A56.844,56.844,0,0,0,35.8,124.849c1.339-1.608-.407-4.663-2.3-5.624-3.423-1.742-6.524-4.511-10.782-4.3a81.454,81.454,0,0,1-17.891-.944,11.328,11.328,0,0,0-1.9-.2C1.454,113.787.08,114.274,0,116.268Zm51.953,2.056c-1.462.365-2.484,1.02-2.535,2.463-.062,1.768,1.435,1.853,2.744,2.025q6.076.783,12.146,1.606c2.208-.283,2.972-1.752,3.058-3.762a19.535,19.535,0,0,0-10.279-3A20.853,20.853,0,0,0,51.956,118.323Zm4.127,22.06a9.817,9.817,0,0,0,8.249,2.886,3.218,3.218,0,0,0,1.686-2.408,8.2,8.2,0,0,0-4.542-1.257A28.112,28.112,0,0,0,56.083,140.384ZM75.243,152.1c2.144-.8,6.4-.7,8.785,2.027,2.626,3.007,3.929-.062,5.15-1.274,1.9-1.877-1.071-2.147-1.575-3.29q-10.018-.79-20.022-1.561C69.19,151.071,70.283,153.939,75.243,152.1Z" transform="translate(0 1.021)" fill="#fcb5c3"/>
        <path id="Claro-4" data-name="Claro" d="M39.9.383a3.153,3.153,0,0,0,3.531,1.825c.232-.011.456-.022.671-.019,8.55.166,15.58,4.775,23.148,7.772,5.877,2.314,11.906,2.772,18.156,2.381,4.849-.3,9.407,1.4,13.946,3.1,2.231.833,5.142,3.434,6.984-.8-7.206-1.183-13.952-4.783-21.315-4.74-9.36.049-17.533-4.718-26.586-5.706a2.371,2.371,0,0,1-1.962-2.4C52.21,1.573,48.016,0,43.526,0A16.7,16.7,0,0,0,39.9.383Zm112.954,27.98c4.531.282,9.056,1.325,13.59.022-3.016-.029-6.025-.817-9.04-.817A12.249,12.249,0,0,0,152.852,28.363Zm14.34,4.766c-.914.061-.488,1.161-.126,1.815,3.8,2.5,8.266,2.423,12.5,3.246-2.426-4.159-6.21-5.128-10.333-5.128C168.558,33.062,167.877,33.087,167.191,33.129Zm-21.528,6.037c.19,3.1,1.935,4.293,4.683,4.352,1.887.046,3.918-.07,3.86-3.36-.412-2.458-2.278-4.061-5.215-4.257-.163-.011-.321-.016-.474-.016C146.641,35.885,145.515,36.749,145.664,39.165ZM81.175,48.283c6.545,2.59,13.588-.115,19.268,4.29.048.493-.628.384-1.317.276-.909-.14-1.839-.284-1.15.952,2.107,3.8.2,3.716-2.771,4.156-3.924.574-7.4-.8-11.022-1.522-5.942-1.188-11.8-5.167-17.794-.193-5.552-4.024-6.89,3.646-10.987,3.681,7.688,3.04,16.146,2.665,23.357,7-3.415-.608-6.835-1.222-10.265-1.812-3.5-.606-7-1.081-10.366.662-.04,1.41,1.759,1.6,2.419,2.85a32.572,32.572,0,0,1-8.9-1.131,29.35,29.35,0,0,0-9.2-1.085c-2.139.2-4.866-.581-3.924,3.459.289,1.263-.765,3.045-2.887,1.512-1.505-1.1-2.56-.408-2.778,1.233-.229,1.657,1.061,2.389,2.427,2.52,4.424.429,8.871.708,13.193,1.041-4.939,2.75-9.7-.673-14.624-.678-2.044,0-5.312-1.258-5.373,1.856-.03,1.817,2.751,2.679,5.448,3.262,5.583,1.214,10.914.4,15.549,4.7,4.137-.094,13.85,1.544,23.235,3.182,9.476,1.657,18.619,3.311,21.354,3.18,6.009-.287-11.379-3.574-17.2-5-5.777-1.413-11.863-1.7-17.456-4.912a5.182,5.182,0,0,1,2.155-.284c1.208.008,2.408.016,3.225-1.244-.293-1.807-3.185-1.064-3.268-3.48,1.689-1.486,3.491-.319,5.417.035,4.3.78,8.624,2.584,12.912-.659,2.391-1.813,5.428-.126,7.31,1.04,6.244,3.86,13.569,1.74,19.941,4.316A1.256,1.256,0,0,0,108.2,81.4c6.84-7.187,13.553-1.12,19.958.6C143.137,86,157.9,90.8,172.748,95.246c.477.14,1.052-.1,1.769-.753-22.174-8.443-44.963-15.057-67.548-22.585,3.949-2.378,8.624.15,12.155-2.812.1-.085.507-.038.536.043,2.282,5.49,6.391,4.952,10.524,4.415,3.122-.407,6.257-.812,8.635,1.368,1.6,1.472,3.858,1.6,6.206.1,2.521-1.6,3.5,0,4.584,1.6.78,1.152,1.619,2.3,3.132,2.268-1.094-3.649-.236-4.295,3.526-2.963,2.966,1.057,5.682,3.5,9.524,2.333,2.573-.783,4.587-1.426,5.18-4.255-.81-.226-1.624-.459-2.438-.689.111-.142.2-.368.336-.4a1.747,1.747,0,0,1,2.175,1.019,18.193,18.193,0,0,1,6.4.9c2.482.657,4.987,1.313,7.762.71-7.4-2.638-14.762-5.429-22.251-7.809-2.16-.686-3.617-.866-3.828-3.676-.26-3.36-3.563-3.306-5.986-3.8-2-.421-4.228-.123-5.641-1.978-.761-.992-3.541-.407-2.335-2.9.858-1.762,2.539-1.56,3.939-1.179,5.408,1.445,10.758,3.091,16.146,4.611,4.065,1.152,8.155,2.234,12.625,2.107-7.815-2.675-15.63-5.336-23.427-8.04-1.408-.488-3.847-.793-.766-2.636-2.357-1.587-4.885-1.531-7.458-1.477-.927.021-1.86.04-2.793-.018-7.692-.463-15.441-.092-23.1-1.486a27.2,27.2,0,0,0-7.815.094,30.011,30.011,0,0,1-7.3.19c-4.415-.587-8.9-.218-13.258-1.847a9.212,9.212,0,0,0-3.239-.6C86.287,45.1,83.8,46.132,81.175,48.283Zm110.9.171c9.281,3.013,17.944,6.512,26.952,8.475a82.922,82.922,0,0,1,13.9,4.533c6.28,2.6,12.917,4.179,19.036,7.3,7.306,3.748,15.092,6.56,22.752,9.585,8.52,3.367,17.14,6.483,25.7,9.765,4.255,1.64,9.042.249,13.179,2.453,3.579.753,3.247-1.23,2.454-3.529-.322-.324-.65-.643-.968-.97-.6,1.392-1.769,1.2-2.83.84C301.367,83.27,290.3,80.2,279.759,75.623a20.253,20.253,0,0,0-6.884-2.947c-4.256-1.47-8.508-2.943-13.984-4.834,2.265-.2,3.281-.3,4.3-.384-18.6-10.3-51.228-20.2-65.272-20.2C195.183,47.259,193.156,47.634,192.071,48.454Zm-35.019,2.322c-.455-.118-.887-.239-1.333-.359C155.975,51.24,156.36,51.572,157.053,50.776Zm5.461,12.885c-.22.069-.3.539-.437.833.285.147.646.458.868.38s.308-.549.451-.839c-.27-.128-.583-.386-.8-.386A.228.228,0,0,0,162.514,63.661ZM11.436,73.32c-1.287,1.555-2.673,1.437-4.223,1.321a7.391,7.391,0,0,0-3.78.432c4.086.609,7.52,2.12,9.933,1.147,1.783-.721,3.339-3.019,5.711-3.655A107.37,107.37,0,0,1,2.758,71.125C5.158,73.064,8.31,72.187,11.436,73.32Zm7.9-.817s.058.064.061.065c.314-.073.628-.155.939-.234C20,72.391,19.67,72.446,19.335,72.5Zm-.258.061c.105,0,.21,0,.316,0l-.061-.065Q19.2,72.53,19.077,72.564ZM7.575,82.921c.721,1.352-1.656,3.2-3.863,4.08-4.794,1.9-4.868,4.185-.662,8.065C5,93.228,6.682,93.012,9.466,94.23a12.9,12.9,0,0,0,8.984.145c3.931-1.544,2.507-4.944-.086-8.289,5.8.442,10.6.719,15.386,1.212,2.51.254,4-.418,4.091-3.132C28.651,82.332,19.522,80.146,10.1,79.9c-.622-.019-1.355-.142-1.973-.142C6.914,79.753,6.153,80.23,7.575,82.921Zm35.919,2.043c-.441-.077-.9-.144-1.348-.211C42.475,85.562,42.906,85.763,43.494,84.964ZM323.2,92.67c6.7,2.022,13.276,4.448,19.9,6.724.582-.486,1.037.156,1.491.8.635.9,1.268,1.794,2.252-.378.088-.679.177-1.351.272-2.019-8.346-4.6-17.545-6.7-26.658-9.029C320.161,90.925,320.893,91.976,323.2,92.67ZM37.52,112.287c.26,1.829,7.926,5.332,9.394,4.113,1.989-1.632-.446-2.809-.762-4.23-1.327.447-2.657.892-4.1,1.376-1.518-1.5,1.719-4.411-1.464-5.45C41.733,111.081,37.177,109.895,37.52,112.287Zm15.968,13.156c.675.276,1.375.844,2,.769a6.206,6.206,0,0,1,1.945.233c1.49.329,2.97.657,3.378-1.3.484-2.324-2.134-3.126-4.267-3.461C56.458,123.689,55.7,125.158,53.488,125.443Zm36.585.11c0,.71-.051,1.745.935,1.445,1.179-.364,1.464-1.537,1.223-2.753C91.513,124.683,90.793,125.123,90.073,125.553Zm52.288,5.1c-3.33.534-6.863.475-9.922,2.285,2.265,2.011,4.727,1.53,7.191,1.049,1.858-.362,3.718-.724,5.494-.019.314-2.01-.978-3.343-2.4-3.344A2.3,2.3,0,0,0,142.361,130.651ZM54.577,132.18a2.6,2.6,0,0,0,2.733,2.812c2.552-.041,5.105-.034,8.174-.026,1.293,0,2.68.006,4.2,0-4.628-2.483-8.419-3.061-12.1-3.836a8.861,8.861,0,0,0-1.772-.337C55.14,130.8,54.6,131.091,54.577,132.18ZM129,136.55l.019,0c-1.2,2.866-3.973,5.574-.89,8.88-.182-1.936.394-3.247,2.611-3.236.51-.483,1.018-.966,1.531-1.445-1.582-1.018-4.209-1.226-3.25-4.2,1.064.164,2.523.743,3.014-.317.637-1.392-1.684-1.756-1.8-3.118C128.294,133.713,129.562,135.466,129,136.55ZM61.2,140.6c-2.016.329-4.006.852-6,1.284a3.226,3.226,0,0,1-1.689,2.408c-.44,2.628,2.043,3.246,3.25,4.73q10.011.782,20.022,1.561a16.469,16.469,0,0,0-4.544-8.545c-1.421-1.386-3.839-1.845-6.4-1.845A29.785,29.785,0,0,0,61.2,140.6Zm69.548,1.6c6.548,2.236,13.016,4.63,18.143,9.556l.113-.1-.115.1c.8,1.523-1.381,4.619,2.253,4.59,3.126-.022,1.8-2.71,2.181-4.266.419-1.77.194-3.8,3.69-3.649-3.609-2-6.346-3.553-9.645-3.579q-7.54-2.048-15.09-4.1C131.768,141.228,131.26,141.711,130.75,142.194Zm16.622,2.654c.763,1.922,4.3,3.234,2.676,5.679C151.668,148.084,148.132,146.772,147.372,144.848Zm-21.983,2.971c-1.326,3.542-5.01,2.85-7.6,4.234-.16,2.649,2.311,3.636,3.563,5.365,1.812,2.507,4.25,3.185,4.8-.671.537-3.8,6.185-6.732,1.992-11.3C128.216,147.382,127.876,148.847,125.388,147.819Zm-8.67,13.655c1.8.713.759,2.464-.938,2.285-2.866-.308-2.222,1.522-2.453,3.1a2.619,2.619,0,0,0,2.978,3.145,8.521,8.521,0,0,1,2.314.1c2.263.292,4.638.585,4.806-3.636.025-.678.531-.544,1.193-.407a2.032,2.032,0,0,0,2.495-.855c-7.184-1.006-7.818-9.8-16-12.531C113.872,156.29,112.82,159.929,116.718,161.475Zm16.914-1.941c-1.206.584-1.212,1.726-.837,2.895.563,1.761,1.64,2.161,3.431,1.718,3-.74,5.762.836,8.757.93-2.561-1.689-6-1.766-6.786-5.764-.091-.458-.582-.632-1.237-.633A8.906,8.906,0,0,0,133.632,159.534Zm-3.317,7.839c1.56,2.493,3.96,1.99,6.022,2.354-1.5-1.222-3.019-2.4-5.228-2.4A6.556,6.556,0,0,0,130.314,167.373Zm6.156,2.462,0,0c.042,0,.082.008.123.013l-.043-.081,0,0c-.07-.014-.142-.027-.214-.04Zm5.477,2.469a8.984,8.984,0,0,0-5.359-2.451C137.646,171.849,139.4,172.247,141.948,172.3Z" transform="translate(10.82 0)" fill="#ffd9e1"/>
      </g>
    </g>
    <path id="Luces-2" data-name="Luces" d="M-5029.01-419.244c-7.014-15.215,1.315-33.8,2.975-49.684,0,0-.487,16.965.271,22.487.45,3.358,1.623,9.421,3.569,13.593,2.668,5.393,12.188,7,11.647,13.334-.386,4.7-3.963,6.952-7.958,6.952A11.7,11.7,0,0,1-5029.01-419.244Zm1778.348-41.215c-8.358-14.417-2.013-33.673-2.013-49.827,0,0,1.156,16.965,2.314,22.487.857,3.232,2.592,9.295,4.881,13.066,3.171,5.251,12.409,5.92,12.711,12.382,0,5.074-3.755,7.65-7.99,7.65A11.608,11.608,0,0,1-3250.662-460.459Zm-476.529,1.078c-16.857-4.168-12.873-38.582-12.257-48.023-.073-1.38,1.179-11.139,1.77-14.863,0,0,.859-9.13,2.022-9.076,1.429.226.686,12.242,1.316,17.516.481,6.213.293,12.869,1.349,19.162,1.338,8.122,4.537,15.589,10.723,20.789,6.395,5.226,7.5,15.042-1.024,15.043A15.871,15.871,0,0,1-3727.191-459.381Zm-562.82-26.854c-10.568-14.857-5.454-58.8-4.792-56.761,2.264,7.092-2.324,28.987,7.483,45.616,3.748,6.137,9.546,5.643,13.305,10.136,2.938,3.262,4.861,7.289-.268,8.985a4.536,4.536,0,0,1-1.49.225C-4280.092-478.033-4287.3-482.473-4290.011-486.234Zm660.15-19.911c-2.521-11.092-2.132-34.563-1.72-37.5,0,0,.306-18.726.75-17.714,2.427,5.514,1.811,16.034,2,20.947-.021,6.393.207,13.093,1.028,17.55a65.99,65.99,0,0,0,4.613,14.934c3.18,6.3,11.736,7.629,9.279,12.728a3.7,3.7,0,0,1-3.5,1.714C-3621.529-493.482-3627.767-497.28-3629.861-506.145ZM-4771.3-554.1c-8.873-4.44-12.55-14.943-13.559-23.027a99.476,99.476,0,0,1-.648-17.905c.507-4.582,1.155-32.321,1.657-30.841,2.741,7.4,6.421,25.319,6.781,29.361a70.658,70.658,0,0,0,6.923,23.157,24.82,24.82,0,0,0,9.014,9.564c2.455,1.48,11.9,1.75,12.405,3.5,1.082,4.518-6.389,8.01-13.977,8.011A19.427,19.427,0,0,1-4771.3-554.1Zm741.908-86.032c-.014-.222-.062-.834-.117-1.441-.578-4.982-1.006-11.044-1.006-11.044s-.427-14.546-.717-20.467c1.006,13.735,6.632,39.724,6.632,39.724s2.821,18.391,10.671,29.759,18.987,17.105,6.681,18.259C-4033.815-590.96-4027.838-617.6-4029.391-640.136Zm579.79,34.85c-6.064-5.651-6.643-16.3-6.064-24.379.579-4.839,1.738-12.782,3.171-17.363,1.432-4.441,7.222-31.112,7.222-29.49.857,7.543,0,25.448-.3,29.348a81.552,81.552,0,0,0,.579,23.439,22.564,22.564,0,0,0,5.183,10.773c1.46,1.75,8.659,3.5,8.659,5.253,0,3.709-4.371,5.893-9.146,5.894A13.2,13.2,0,0,1-3449.6-605.286Zm-1141.511-23.972c-6.2-6.874-8-21.277-8.216-23.171-.221-1.75.068-9.15-.146-11.031l2.233,9.423c1.73,6.86,3.751,10.9,9.018,16.3,2.377,2.289,8.506,4.44,8.65,7.941.152,2.545-1.9,3.865-4.476,3.865A9.666,9.666,0,0,1-4591.112-629.258Zm774.931-18.111a61.146,61.146,0,0,1-3.461-14.532c-.579-5.253,0-10.775-.289-16.026-.29.67,0,0,0-1.75v-5.663l1.723,8.482c2.317,10.1,2.894,15.216,8.368,24.11,2.317,4.041,4.909,5.792,8.948,7.941,3.75,1.893,7.789,7.274,4.329,11.444a5.435,5.435,0,0,1-4.2,2.117C-3806.937-631.248-3814.092-642.149-3816.18-647.37Z" transform="translate(5031.778 685.342)" fill="#ffdbdb"/>
  </g>
</svg>
