<svg xmlns="http://www.w3.org/2000/svg" width="90.204" height="102.668" viewBox="0 0 90.204 102.668">
  <path id="LogoFooter" d="M252.372,50.185c2.763,2.3,4.249,5.479,5.847,8.521a40.049,40.049,0,0,1,3.809-1.8c3.056-1.077,5.222-.215,6.575,2.712,2.1,4.543,5,8.6,7.56,12.865.145.244.341.462.625.837a42.71,42.71,0,0,0,8.465-15.127c-1.277-1.347-2.588-2.63-3.78-4.013a26.085,26.085,0,0,1-5.645-9.974,16.237,16.237,0,0,1,.358-10.263c2-5.381,4.02-10.758,6.182-16.076,1.245-3.061,2.185-6.119,1.881-9.463a5.757,5.757,0,0,1,.123-1.59,3.164,3.164,0,0,1,2.973-2.6A7.071,7.071,0,0,1,291.415,5.3a31.384,31.384,0,0,1,11.767,12.341,32.7,32.7,0,0,1,4.315,14.5,28.867,28.867,0,0,1-7.447,21.044C298.731,54.7,297.171,56,295.7,57.373a3.979,3.979,0,0,1-1.026.7,1.921,1.921,0,0,1-2.807-1.656,5.621,5.621,0,0,1,.168-1.4A100.533,100.533,0,0,0,294.2,39.588a29.713,29.713,0,0,0-3.863-16.544c-.234-.412-.513-.8-.729-1.22a2.072,2.072,0,0,1,.6-2.827,2.254,2.254,0,0,1,2.834.709,20.559,20.559,0,0,1,1.27,2.139,32.936,32.936,0,0,1,3.854,15.161,66.991,66.991,0,0,1-.949,11.821c-.057.344-.053.7-.081,1.044l.408.332a12.666,12.666,0,0,1,.7-1.168A25.212,25.212,0,0,0,303.5,31.914,29.069,29.069,0,0,0,299.727,19.8a28.071,28.071,0,0,0-9.433-10.457c-.529-.342-1.108-.608-1.882-1.027-.06.7-.131,1.144-.128,1.583a21.1,21.1,0,0,1-1.7,8.284q-2.9,7.064-5.623,14.2a21.217,21.217,0,0,0-1.749,6.847,14.2,14.2,0,0,0,1.73,6.991,27.529,27.529,0,0,0,6.552,8.34c2.439,2.118,2.468,2.161,1.436,5.3a46.887,46.887,0,0,1-9.2,16.293c-.151.172-.265.376-.508.725,1.387,1.534,2.68,3.154,4.17,4.572a39.941,39.941,0,0,1,6.58,7.907,11.3,11.3,0,0,1,.1,12.6c-3.723,5.947-11.191,6.285-15.63.865a19.509,19.509,0,0,1-3.76-7.387,29.112,29.112,0,0,0-3.431-8.1c-.78.644-1.5,1.24-2.22,1.831a53.088,53.088,0,0,1-22.176,11.3,33.024,33.024,0,0,1-7.934.989c-1.469-.03-2.941.024-4.413-.018a1.819,1.819,0,0,1-2-1.8,1.911,1.911,0,0,1,1.941-2.078c1.071-.06,2.145-.018,3.215-.017a41,41,0,0,0,19.1-5.01,54.46,54.46,0,0,0,10.417-7.119c.579-.5,1.121-1.04,1.749-1.625-.672-.864-1.278-1.665-1.9-2.449-1.628-2.039-3.234-4.1-4.907-6.1-1.1-1.313-2.3-2.54-3.461-3.8-.479-.524-1.011-1.01-1.444-1.57-1.9-2.469-1.87-4.472.076-6.914.441-.557.913-1.087,1.474-1.752-1.392-3.137-2.789-6.309-5.753-8.485a6.987,6.987,0,0,0-3.495-1.111,38.376,38.376,0,0,1-15.677-4.939,29.519,29.519,0,0,1-9.082-8.386c-4.814-6.938-4.389-15.3,2.2-21.556a30.761,30.761,0,0,1,8.422-5.907c5.362-2.428,13.09-1.679,17.3,3.076a20.007,20.007,0,0,1,4.021,7.454,43.861,43.861,0,0,1,2.221,14.308,49.023,49.023,0,0,1-2.21,13.254C252.595,49.3,252.5,49.7,252.372,50.185Zm3.345,16.128a10.6,10.6,0,0,0,.752,1.063c.9.942,1.876,1.808,2.706,2.8,2.352,2.816,4.615,5.705,6.968,8.522a41.337,41.337,0,0,1,8.688,16.5,12.784,12.784,0,0,0,3.147,5.5,5.1,5.1,0,0,0,7.7.281,7.454,7.454,0,0,0,.595-9.876,68.852,68.852,0,0,0-5.281-6.218,59.4,59.4,0,0,1-7.733-9.483c-2.846-4.563-6.045-8.924-8.172-13.913-.458-1.071-.842-1.249-1.784-.813A24.666,24.666,0,0,0,255.717,66.313Zm-9.982-20.718c-2.843-7.112-14.682-23.467-19.184-26.581-.419.369-.847.747-1.224,1.081C228.924,33.2,235.543,40.031,245.735,45.595ZM230,16.317c1.919,2.159,3.747,4.106,5.445,6.158,1.736,2.1,3.4,4.268,4.99,6.478,1.558,2.164,2.991,4.415,4.469,6.637,1.464,2.2,2.542,4.641,4.172,6.734-1.784-11.649-7.273-20.87-17.655-26.975C230.942,15.675,230.517,15.966,230,16.317ZM237.886,46c.069-.115.137-.232.205-.345a41.592,41.592,0,0,1-9.54-9.1,59.746,59.746,0,0,1-6.269-11.675,11.209,11.209,0,0,0-.749,3.836,13.368,13.368,0,0,0,2.742,7.545,28.113,28.113,0,0,0,9.586,8.036C235.163,44.941,236.541,45.438,237.886,46Zm12.728-14.739A6.042,6.042,0,0,0,250.6,29.9c-.592-2.522-1.183-5.045-1.862-7.546a14.961,14.961,0,0,0-2.724-5.332,9.654,9.654,0,0,0-9.5-3.226A41.307,41.307,0,0,1,250.615,31.262Z" transform="translate(-217.431 -4.102)" fill="#fff" stroke="#fff" stroke-width="0.2" fill-rule="evenodd"/>
</svg>
