<svg id="Logo" xmlns="http://www.w3.org/2000/svg" width="109.796" height="28.508" viewBox="0 0 109.796 28.508">
  <path id="Path_4" data-name="Path 4" d="M171.33,45.366a9.64,9.64,0,0,0,.922.57,10.182,10.182,0,0,0,6.577.882,4.969,4.969,0,0,0,3.474-2.393,5.447,5.447,0,0,0,.653-3.049A3.931,3.931,0,0,0,180.7,37.8a18.658,18.658,0,0,0-2.383-.938,23.894,23.894,0,0,1-3.292-1.187,3.061,3.061,0,0,1-1.081-4.491,3.567,3.567,0,0,1,2.95-1.446,6.059,6.059,0,0,1,4.169,1.392c.254.2.491.427.762.664l1.143-1.211a7.9,7.9,0,0,0-.611-.6,7.728,7.728,0,0,0-7.3-1.434,4.523,4.523,0,0,0-2.805,2.2,5,5,0,0,0-.579,2.619,4.028,4.028,0,0,0,2.3,3.74,13.218,13.218,0,0,0,2.548.924,16.953,16.953,0,0,1,2.671.873,3.312,3.312,0,0,1,1.234,5.173,3.79,3.79,0,0,1-2.706,1.358,8.15,8.15,0,0,1-5.008-1.185l-.562-.324Z" transform="translate(-104.733 -18.84)" fill="#fff" fill-rule="evenodd"/>
  <path id="Path_5" data-name="Path 5" d="M62.507,11.034v.64q0,10.265.008,20.531a9.453,9.453,0,0,0,.193,1.809,3,3,0,0,0,2.62,2.53A7.645,7.645,0,0,0,68.6,36.36a3.088,3.088,0,0,0,1.175-.526l-.486-1.343-.521.208a5.21,5.21,0,0,1-2.267.4,1.876,1.876,0,0,1-1.785-1.1,2.942,2.942,0,0,1-.245-.85,22.892,22.892,0,0,1-.176-2.357q-.021-9.573-.008-19.146v-.6Z" transform="translate(-38.921 -8.369)" fill="#fff" fill-rule="evenodd"/>
  <path id="Path_6" data-name="Path 6" d="M129.8,11.033v.494q0,10.437.009,20.875a7.932,7.932,0,0,0,.206,1.708,2.894,2.894,0,0,0,2.4,2.386,7.121,7.121,0,0,0,4.249-.424,4.212,4.212,0,0,0,.4-.221l-.5-1.357-.517.206a5.324,5.324,0,0,1-2.268.4,1.885,1.885,0,0,1-1.915-1.478c-.03-.094-.055-.189-.077-.286a11.537,11.537,0,0,1-.2-2.6q-.014-9.546-.005-19.093v-.6Z" transform="translate(-79.615 -8.369)" fill="#fff" fill-rule="evenodd"/>
  <path id="Path_9" data-name="Path 9" d="M227.187,16.995a7.239,7.239,0,0,1,1.62,2.371,11.074,11.074,0,0,1,1.055-.5,1.3,1.3,0,0,1,1.822.755,37.985,37.985,0,0,0,2.095,3.579c.04.068.094.128.173.233a11.9,11.9,0,0,0,2.345-4.209c-.354-.375-.717-.732-1.047-1.117a7.265,7.265,0,0,1-1.564-2.775,4.535,4.535,0,0,1,.1-2.855c.554-1.5,1.114-2.993,1.713-4.473a5.584,5.584,0,0,0,.521-2.633,1.607,1.607,0,0,1,.034-.442.878.878,0,0,1,.824-.723,1.953,1.953,0,0,1,1.128.3,8.717,8.717,0,0,1,3.26,3.433,9.125,9.125,0,0,1,1.2,4.035,8.051,8.051,0,0,1-2.064,5.855c-.365.42-.8.781-1.2,1.164a1.1,1.1,0,0,1-.284.2.532.532,0,0,1-.778-.461,1.57,1.57,0,0,1,.047-.389,28.075,28.075,0,0,0,.6-4.293,8.294,8.294,0,0,0-1.07-4.6c-.065-.115-.142-.222-.2-.34a.578.578,0,0,1,.166-.787.623.623,0,0,1,.785.2,5.726,5.726,0,0,1,.352.6,9.193,9.193,0,0,1,1.068,4.218,18.713,18.713,0,0,1-.263,3.289c-.016.1-.015.194-.023.291L239.7,17a3.532,3.532,0,0,1,.2-.325,7.034,7.034,0,0,0,1.455-4.763,8.111,8.111,0,0,0-1.046-3.369,7.8,7.8,0,0,0-2.614-2.909c-.147-.1-.307-.169-.521-.286-.017.2-.036.318-.036.44a5.892,5.892,0,0,1-.471,2.3q-.8,1.965-1.558,3.951a5.922,5.922,0,0,0-.485,1.905,3.964,3.964,0,0,0,.479,1.945,7.655,7.655,0,0,0,1.815,2.32c.676.589.684.6.4,1.475a13.059,13.059,0,0,1-2.55,4.533c-.042.048-.074.1-.141.2.384.427.743.877,1.155,1.272a11.1,11.1,0,0,1,1.823,2.2,3.154,3.154,0,0,1,.028,3.5,2.573,2.573,0,0,1-4.331.241,5.436,5.436,0,0,1-1.042-2.055,8.117,8.117,0,0,0-.951-2.253l-.615.509a14.688,14.688,0,0,1-6.144,3.144,9.115,9.115,0,0,1-2.2.275c-.407-.008-.815.007-1.223-.005a.5.5,0,0,1-.553-.5.531.531,0,0,1,.538-.578c.3-.017.594-.005.891,0a11.323,11.323,0,0,0,5.293-1.394,15.087,15.087,0,0,0,2.886-1.981c.16-.139.311-.289.485-.452-.186-.24-.354-.463-.527-.681-.451-.567-.9-1.14-1.36-1.7-.3-.365-.638-.707-.959-1.058-.133-.146-.28-.281-.4-.437a1.357,1.357,0,0,1,.021-1.924c.122-.155.253-.3.408-.487a5.394,5.394,0,0,0-1.594-2.361,1.93,1.93,0,0,0-.968-.309,10.6,10.6,0,0,1-4.344-1.374,8.192,8.192,0,0,1-2.517-2.333,4.423,4.423,0,0,1,.609-6,8.523,8.523,0,0,1,2.333-1.643,4.284,4.284,0,0,1,4.793.856,5.574,5.574,0,0,1,1.114,2.074,12.25,12.25,0,0,1,.615,3.981,13.69,13.69,0,0,1-.612,3.688C227.249,16.75,227.224,16.86,227.187,16.995Zm.927,4.487a2.948,2.948,0,0,0,.208.3c.248.262.52.5.75.78.652.783,1.279,1.587,1.931,2.371a11.517,11.517,0,0,1,2.407,4.592,3.56,3.56,0,0,0,.872,1.531,1.41,1.41,0,0,0,2.134.078,2.08,2.08,0,0,0,.165-2.748,19.135,19.135,0,0,0-1.463-1.73,16.514,16.514,0,0,1-2.143-2.638,28.961,28.961,0,0,1-2.264-3.871c-.127-.3-.233-.347-.494-.226A6.836,6.836,0,0,0,228.114,21.482Zm-2.766-5.764c-.788-1.979-4.068-6.529-5.316-7.4l-.339.3A10.522,10.522,0,0,0,225.348,15.718Zm-4.36-8.146c.532.6,1.038,1.142,1.509,1.713s.941,1.187,1.383,1.8.829,1.228,1.238,1.847.7,1.291,1.156,1.873a9.958,9.958,0,0,0-4.892-7.5Zm2.185,8.259.057-.1a11.545,11.545,0,0,1-2.643-2.532,16.645,16.645,0,0,1-1.737-3.248,3.129,3.129,0,0,0-.207,1.067,3.728,3.728,0,0,0,.76,2.1,7.8,7.8,0,0,0,2.656,2.236C222.419,15.536,222.8,15.674,223.174,15.831Zm3.527-4.1a1.687,1.687,0,0,0,0-.379c-.164-.7-.328-1.4-.516-2.1a4.169,4.169,0,0,0-.755-1.483,2.669,2.669,0,0,0-2.632-.9A11.484,11.484,0,0,1,226.7,11.73Z" transform="translate(-132.675 -4.201)" fill="#fff" fill-rule="evenodd"/>
  <path id="Path_11" data-name="Path 11" d="M97.353,43.772l.907,1.256a7.192,7.192,0,0,1-1.875,1.2,9.408,9.408,0,0,1-6.733.3,6.378,6.378,0,0,1-3.805-3.653,11.769,11.769,0,0,1-.9-4.422,13.434,13.434,0,0,1,.418-4.06,8.491,8.491,0,0,1,3.179-4.808,7.386,7.386,0,0,1,4.114-1.349,6.573,6.573,0,0,1,2.86.423,3.666,3.666,0,0,1,2.432,3.2,5.12,5.12,0,0,1-2.918,5.3,11.939,11.939,0,0,1-4.05,1.2,21.173,21.173,0,0,1-3.4.17c-.256-.006-.511-.032-.84-.055.038.4.06.759.107,1.111a7.534,7.534,0,0,0,1.674,4.1,5,5,0,0,0,3.348,1.708,6.958,6.958,0,0,0,5.3-1.546A.944.944,0,0,1,97.353,43.772ZM86.769,36.926c.246.023.424.05.6.055a18.774,18.774,0,0,0,3.539-.231,10,10,0,0,0,3.275-1.041,3.291,3.291,0,0,0,1.866-3.621,2.682,2.682,0,0,0-1.449-2,3.7,3.7,0,0,0-1.916-.364,5.312,5.312,0,0,0-3.843,1.744,7.864,7.864,0,0,0-1.8,3.52A8.245,8.245,0,0,0,86.769,36.926Z" transform="translate(-52.489 -18.861)" fill="#fff" fill-rule="evenodd"/>
  <path id="Path_12" data-name="Path 12" d="M171.33,45.367l.831-1.438.562.324a8.15,8.15,0,0,0,5.008,1.185,3.787,3.787,0,0,0,2.706-1.358,3.312,3.312,0,0,0-1.234-5.173,16.953,16.953,0,0,0-2.671-.873,13.208,13.208,0,0,1-2.548-.924,4.028,4.028,0,0,1-2.3-3.74,5,5,0,0,1,.579-2.619,4.521,4.521,0,0,1,2.805-2.2,7.729,7.729,0,0,1,7.3,1.434,7.9,7.9,0,0,1,.611.6L181.83,31.8c-.271-.238-.508-.461-.762-.664a6.054,6.054,0,0,0-4.169-1.392,3.568,3.568,0,0,0-2.95,1.446,3.061,3.061,0,0,0,1.081,4.491,23.894,23.894,0,0,0,3.292,1.187,18.636,18.636,0,0,1,2.382.938,3.93,3.93,0,0,1,2.252,3.571,5.448,5.448,0,0,1-.653,3.049,4.971,4.971,0,0,1-3.474,2.393,10.185,10.185,0,0,1-6.577-.882A9.7,9.7,0,0,1,171.33,45.367Z" transform="translate(-104.733 -18.841)" fill="#fff" fill-rule="evenodd"/>
  <path id="Path_13" data-name="Path 13" d="M62.506,11.034h1.781v.6q0,9.573.008,19.146a22.786,22.786,0,0,0,.176,2.357,2.938,2.938,0,0,0,.245.85,1.876,1.876,0,0,0,1.785,1.1,5.208,5.208,0,0,0,2.267-.4l.521-.208.486,1.343a3.079,3.079,0,0,1-1.175.526,7.645,7.645,0,0,1-3.273.184,3,3,0,0,1-2.62-2.53,9.486,9.486,0,0,1-.193-1.809Q62.5,21.94,62.506,11.674C62.506,11.479,62.506,11.283,62.506,11.034Z" transform="translate(-38.92 -8.369)" fill="#fff" fill-rule="evenodd"/>
  <path id="Path_14" data-name="Path 14" d="M129.8,11.033h1.781v.6q0,9.547.005,19.093a11.491,11.491,0,0,0,.2,2.6c.023.1.047.192.077.286a1.884,1.884,0,0,0,1.915,1.478,5.318,5.318,0,0,0,2.268-.4l.517-.206.5,1.357a4.211,4.211,0,0,1-.4.221,7.118,7.118,0,0,1-4.249.424,2.9,2.9,0,0,1-2.4-2.386,7.933,7.933,0,0,1-.206-1.708q-.021-10.437-.009-20.875C129.8,11.379,129.8,11.233,129.8,11.033Z" transform="translate(-79.616 -8.369)" fill="#fff" fill-rule="evenodd"/>
  <path id="Path_7" data-name="Path 7" d="M156.172,29.551V47.319H157.9c.1-.6.074-17.412-.025-17.768Z" transform="translate(-95.566 -19.665)" fill="#fff" fill-rule="evenodd"/>
  <path id="Path_8" data-name="Path 8" d="M154.678,14.218a1.425,1.425,0,0,0,1.416,1.6,1.5,1.5,0,0,0,1.552-1.551,1.485,1.485,0,1,0-2.968-.053Z" transform="translate(-94.662 -9.399)" fill="#fff" fill-rule="evenodd"/>
  <path id="Path_10" data-name="Path 10" d="M11.393,13.781h2.449l8.744,24H20.609c-.966-2.66-1.942-5.345-2.918-8.034H7.584q-1.425,4.023-2.847,8.033H2.832ZM8.2,28.012h8.879l-4.444-12.47-.1,0C11.092,19.688,9.651,23.831,8.2,28.012Z" transform="translate(-2.832 -10.045)" fill="#fff" fill-rule="evenodd"/>
  <path id="Path_15" data-name="Path 15" d="M156.172,29.551h1.7c.1.357.124,17.167.025,17.768h-1.729C156.172,41.4,156.172,35.5,156.172,29.551Z" transform="translate(-95.566 -19.665)" fill="#fff" fill-rule="evenodd"/>
  <path id="Path_16" data-name="Path 16" d="M154.678,14.217a1.485,1.485,0,1,1,2.968.053,1.5,1.5,0,0,1-1.552,1.551A1.425,1.425,0,0,1,154.678,14.217Z" transform="translate(-94.662 -9.399)" fill="#fff" fill-rule="evenodd"/>
</svg>
