<svg xmlns="http://www.w3.org/2000/svg" width="346" height="87.5" viewBox="0 0 346 87.5">
  <g id="Iconos" transform="translate(-417 -3257.5)">
    <g id="Group_159" data-name="Group 159">
      <rect id="Rectangle_105" data-name="Rectangle 105" width="346" height="87" transform="translate(417 3258)" fill="none"/>
    </g>
    <g id="Mercado_Pago" data-name="Mercado Pago" transform="translate(-136 -41)">
      <text id="Mercado_Pago-2" data-name="Mercado Pago" transform="translate(844 3382)" fill="#fff" font-size="18" font-family="Lato-Regular, Lato" letter-spacing="-0.02em"><tspan x="-54.743" y="0">Mercado Pago</tspan></text>
      <path id="Icon_payment-mercado-pago-sign" data-name="Icon payment-mercado-pago-sign" d="M38.061,16.35c-17.234,0-31.206,10.4-31.206,23.169,0,.329,0,1.24,0,1.356,0,13.541,12.212,24.507,31.206,24.507,19.112,0,31.211-10.964,31.211-24.505V39.517C69.268,26.754,55.3,16.35,38.061,16.35Zm.006,44.945C21.5,61.294,8.062,51.54,8.062,39.507S21.5,17.718,38.067,17.718s30.006,9.755,30.006,21.789S54.64,61.294,38.067,61.294ZM54.752,41.788c-2.96-2.932-9.8-9.684-11.656-11.263a7.935,7.935,0,0,0-2.415-1.6,3.546,3.546,0,0,0-1.186-.209,4.477,4.477,0,0,0-1.506.287,12.245,12.245,0,0,0-3.545,2.548l-.06.053A9.7,9.7,0,0,1,31.359,33.8a4.519,4.519,0,0,1-1.12.142,2.672,2.672,0,0,1-2.1-.769c-.053-.075-.019-.2.1-.376l.016-.024,2.6-3.186c2.04-2.315,3.966-4.5,8.4-4.617.073,0,.148,0,.221,0a14.248,14.248,0,0,1,5.83,1.567,16.33,16.33,0,0,0,7.946,2.163,18.757,18.757,0,0,0,8.723-2.372c-.339-.324-.692-.638-1.055-.947a17.317,17.317,0,0,1-7.661,1.975,15.3,15.3,0,0,1-7.435-2.031,15.169,15.169,0,0,0-6.346-1.7l-.251,0A10.3,10.3,0,0,0,32,26.536a12.841,12.841,0,0,0-3.61.747,8.737,8.737,0,0,1-2.544.553c-.327,0-.913-.034-.966-.036a44.887,44.887,0,0,1-9.147-2.877q-.551.444-1.08.924A41.168,41.168,0,0,0,24.566,29.1c.408.03.842.082,1.276.083a9.732,9.732,0,0,0,2.871-.605c.552-.176,1.162-.368,1.8-.507q-.257.288-.513.578L27.357,31.9a1.642,1.642,0,0,0-.362,1.66,2.046,2.046,0,0,0,.7.877,5.017,5.017,0,0,0,2.809.809,4.5,4.5,0,0,0,1.121-.133,10,10,0,0,0,3.505-2.447,11.479,11.479,0,0,1,3.445-2.341,3.5,3.5,0,0,1,.96-.149,1.668,1.668,0,0,1,.249.017A4.923,4.923,0,0,1,42.385,31.6c2.172,1.851,11.784,11.4,11.878,11.49a2.22,2.22,0,0,1,.577,1.6,1.785,1.785,0,0,1-.768,1.393,2.15,2.15,0,0,1-1.261.446,1.917,1.917,0,0,1-1.114-.367c-.035-.033-3.329-3.461-4.54-4.611a.986.986,0,0,0-.57-.345.3.3,0,0,0-.251.134c-.191.267.022.635.275.879l3.846,4.388a2.156,2.156,0,0,1,.531,1.183,2.063,2.063,0,0,1-.913,1.81,2.285,2.285,0,0,1-1.363.512,1.833,1.833,0,0,1-1.1-.378l-.552-.618C46.053,48,45.012,46.833,44.25,46.111a.985.985,0,0,0-.574-.337.31.31,0,0,0-.243.117c-.087.11-.148.307.069.633a2.134,2.134,0,0,0,.194.245L46.5,50.348a1.344,1.344,0,0,1,.063,1.527l-.1.143a3.028,3.028,0,0,1-.261.285,2.061,2.061,0,0,1-1.372.494,1.9,1.9,0,0,1-.379-.037A.9.9,0,0,1,43.9,52.5l-.034-.04c-.154-.179-1.569-1.819-2.74-2.928-.154-.147-.347-.331-.546-.331a.317.317,0,0,0-.253.128c-.232.288.116.719.263.877l2.394,3a.647.647,0,0,1-.091.182c-.086.134-.376.465-1.245.588a2.137,2.137,0,0,1-.318.022,5.016,5.016,0,0,1-2.343-.789,4.5,4.5,0,0,0,.34-1.722,3.841,3.841,0,0,0-3.57-4.058l-.129,0a3.748,3.748,0,0,0-1.812-3.806,3.385,3.385,0,0,0-1.493-.374,2.726,2.726,0,0,0-1.095.225,3.14,3.14,0,0,0-1.749-1.685,3.5,3.5,0,0,0-1.282-.257,3.113,3.113,0,0,0-2,.726,2.906,2.906,0,0,0-2.35-1.288,2.863,2.863,0,0,0-2.133,1c-.745-.646-3.7-2.777-11.613-4.817-.384-.1-1.262-.384-1.8-.564q-.134.731-.2,1.474s1.459.4,1.746.47c8.082,2.038,10.754,4.156,11.2,4.557a3.865,3.865,0,0,0-.233,1.32,3.258,3.258,0,0,0,3.028,3.44,2.716,2.716,0,0,0,.556-.057,3.9,3.9,0,0,0,2.284,2.995,2.691,2.691,0,0,0,1.079.237,2.44,2.44,0,0,0,.689-.1,3.4,3.4,0,0,0,1.879,2,2.874,2.874,0,0,0,1.19.278,2.391,2.391,0,0,0,.925-.187,3.6,3.6,0,0,0,3.3,2.514A3.37,3.37,0,0,0,38.314,54.3a6.173,6.173,0,0,0,3.024,1.024,3.314,3.314,0,0,0,.458-.033,2.69,2.69,0,0,0,2.051-1.139,1.711,1.711,0,0,0,.125-.232,3.093,3.093,0,0,0,.969.172,3.027,3.027,0,0,0,1.954-.793,3.1,3.1,0,0,0,1.153-1.9c0-.009,0-.018,0-.027a2.885,2.885,0,0,0,.654.076,3.343,3.343,0,0,0,2.008-.723,3.431,3.431,0,0,0,1.441-2.929,2.854,2.854,0,0,0,.662.078A3.287,3.287,0,0,0,56,44.792a3.61,3.61,0,0,0-.415-1.951A71.332,71.332,0,0,1,68.056,38.41c-.034-.494-.1-.983-.174-1.468a65.922,65.922,0,0,0-13.13,4.844ZM35.759,54.25a2.589,2.589,0,0,1-2.44-2.648c0-.127-.015-.465-.267-.465a.449.449,0,0,0-.3.176,1.64,1.64,0,0,1-1.2.616,1.89,1.89,0,0,1-.791-.2,2.032,2.032,0,0,1-1.356-2.163.438.438,0,0,0-.05-.331l-.086-.087h-.086a.4.4,0,0,0-.243.112,1.885,1.885,0,0,1-1.182.478,1.646,1.646,0,0,1-.66-.146,3.031,3.031,0,0,1-1.6-3.367.308.308,0,0,0-.08-.275l-.13-.121-.121.131a1.777,1.777,0,0,1-1.317.605,2.178,2.178,0,0,1,0-4.322,2,2,0,0,1,1.878,1.887l.066.581.281-.491A2.777,2.777,0,0,1,28.3,42.848a2.5,2.5,0,0,1,.827.147,2.189,2.189,0,0,1,1.349,2.035c.02.282.2.3.232.3a.3.3,0,0,0,.22-.13,1.831,1.831,0,0,1,1.4-.672,2.427,2.427,0,0,1,1.05.269c1.793.873.98,3.459.969,3.486-.154.429-.16.618-.016.727l.071.038h.052a1.147,1.147,0,0,0,.347-.1,2.747,2.747,0,0,1,.956-.238h0a2.8,2.8,0,0,1,0,5.55Z" transform="translate(805.94 3282.65)" fill="#fff" stroke="#fff" stroke-width="1"/>
    </g>
    <g id="Efectivo" transform="translate(-76.421 -18)">
      <text id="Efectivo-2" data-name="Efectivo" transform="translate(665.421 3358)" fill="#fff" font-size="18" font-family="Lato-Regular, Lato"><tspan x="-32.229" y="0">Efectivo</tspan></text>
      <g id="Icon_ionic-md-cash" data-name="Icon ionic-md-cash" transform="translate(637.422 3276)">
        <path id="Path_31" data-name="Path 31" d="M2.25,6.75V37.83h56V6.75Zm20.063,27.2H12.262a5.922,5.922,0,0,0-6.012-5.84v-9.7a7.9,7.9,0,0,0,8-7.77h8.063A17.8,17.8,0,0,0,18.25,22.29,17.8,17.8,0,0,0,22.313,33.945Zm31.938-5.84a5.96,5.96,0,0,0-6,5.84H38.188A17.8,17.8,0,0,0,42.25,22.29a17.8,17.8,0,0,0-4.062-11.655H46.25a7.9,7.9,0,0,0,8,7.77Z" transform="translate(-2.25 -6.75)" fill="#fff"/>
        <path id="Path_32" data-name="Path 32" d="M2.25,27h56v4.46h-56Z" transform="translate(-2.25 8.54)" fill="#fff"/>
      </g>
    </g>
    <g id="Transferencia" transform="translate(-114.498 -18)">
      <text id="Transferencia-2" data-name="Transferencia" transform="translate(585.498 3356)" fill="#fff" font-size="18" font-family="Lato-Regular, Lato"><tspan x="-52.474" y="0">Transferencia</tspan></text>
      <path id="bank_transfer_icon_137913" d="M39.7,33V24.3h8.7V18.5L60,28.65,48.4,38.8V33H39.7M36.8,14.73V18.5H2V14.73L19.4,4,36.8,14.73M16.5,21.4h5.8V35.9H16.5V21.4m-11.6,0h5.8V35.9H4.9V21.4m29,0v7.25l-5.8,5.22V21.4h5.8M22.59,38.8l-1.74,1.45,4.93,4.35H2V38.8H22.59M45.5,35.9v8.7H36.8v5.8L25.2,40.25,36.8,30.1v5.8Z" transform="translate(560.498 3272)" fill="#fff"/>
    </g>
  </g>
</svg>
